<svg id="ejPX0w7QG391" xmlns="http://www.w3.org/2000/svg" xmlns:xlink="http://www.w3.org/1999/xlink" viewBox="-55 0 550 500" shape-rendering="geometricPrecision" text-rendering="geometricPrecision" project-id="bfe1f8e3e4594b21ad01520f0c603c0c" export-id="8b46ee8b9025433d855f58fc45730701" cached="false">
<style><![CDATA[
#ejPX0w7QG392_tr {animation: ejPX0w7QG392_tr__tr 500ms linear 1 normal forwards}@keyframes ejPX0w7QG392_tr__tr { 0% {transform: translate(222.205002px,222.205002px) rotate(0deg)} 100% {transform: translate(222.205002px,222.205002px) rotate(90deg)}} #ejPX0w7QG392_ts {animation: ejPX0w7QG392_ts__ts 500ms linear 1 normal forwards}@keyframes ejPX0w7QG392_ts__ts { 0% {transform: scale(1,1)} 100% {transform: scale(0,0)}}
]]></style>
<g id="ejPX0w7QG392_tr" transform="translate(222.205002,222.205002) rotate(0)"><g id="ejPX0w7QG392_ts" transform="scale(1,1)"><g transform="translate(-222.205002,-222.205002)"><polygon points="407.69,99.52 289.24,169.66 385.62,71.37 369.81,55.88 272.33,155.29 340.32,33.78 321,22.97 253.99,142.75 288.05,9.79 266.61,4.3 232.44,137.65 231.1,0 208.96,0.22 210.33,139.44 172.49,5.46 151.19,11.47 188.49,143.55 118.56,25.45 99.52,36.73 169.66,155.18 71.37,58.8 55.87,74.6 155.29,172.08 33.78,104.1 22.97,123.41 142.74,190.43 9.79,156.37 4.3,177.81 137.65,211.97 0,213.32 0.22,235.45 139.45,234.09 5.45,271.93 11.47,293.23 143.55,255.92 25.45,325.85 36.73,344.9 155.18,274.76 58.8,373.04 74.6,388.54 172.08,289.13 104.1,410.63 123.41,421.44 190.43,301.67 156.37,434.62 177.81,440.12 211.97,306.76 213.32,444.41 235.45,444.2 234.09,304.97 271.93,438.96 293.23,432.95 255.92,300.87 325.85,418.96 344.89,407.69 274.76,289.24 373.05,385.62 388.54,369.82 289.13,272.33 410.63,340.32 421.44,321 301.67,253.99 434.62,288.05 440.12,266.61 306.76,232.45 444.41,231.1 444.2,208.97 304.97,210.33 438.96,172.48 432.95,151.19 300.87,188.49 418.96,118.57 407.69,99.52" fill="#ffe3a5"/></g></g></g></svg>
