<?xml version="1.0" encoding="UTF-8"?>
<svg id="Ebene_2" data-name="Ebene 2" xmlns="http://www.w3.org/2000/svg" viewBox="0 0 39.69 39.69">
  <defs>
    <style>
      .cls-1 {
        fill: none;
      }

      .cls-2 {
        fill: #1d1d1b;
      }
    </style>
  </defs>
  <g id="Icon">
    <g>
      <rect class="cls-1" width="39.69" height="39.69"/>
      <g>
        <path class="cls-2" d="M16.23,21.89c.3-.66,.48-1.39,.48-2.17v-2.89c0-2.86-2.33-5.19-5.19-5.19h-.42c-2.86,0-5.19,2.33-5.19,5.19v2.89c0,.77,.17,1.51,.48,2.17-2.32,1.58-3.85,4.24-3.85,7.25v2.5c0,.3,.24,.54,.54,.54s.54-.24,.54-.54v-2.5c0-2.62,1.32-4.93,3.32-6.32,.95,1.27,2.46,2.09,4.16,2.09h.42c1.7,0,3.21-.82,4.16-2.09,2,1.39,3.32,3.7,3.32,6.32v2.5c0,.3,.24,.54,.54,.54s.54-.24,.54-.54v-2.5c0-3.01-1.53-5.67-3.85-7.25Zm-4.71,1.94h-.42c-2.26,0-4.1-1.84-4.1-4.1v-2.89c0-2.26,1.84-4.1,4.1-4.1h.42c2.26,0,4.1,1.84,4.1,4.1v2.89c0,2.26-1.84,4.1-4.1,4.1Z"/>
        <path class="cls-2" d="M36.73,31.09c-.08-1.01-.59-1.9-1.33-2.5,.07-.21,.1-.44,.1-.67v-1.1c0-1.24-1.01-2.24-2.24-2.24h-.18c-1.24,0-2.24,1.01-2.24,2.24v1.1c0,.23,.04,.46,.1,.67-.74,.6-1.25,1.48-1.33,2.48h-.97c-.09-1-.59-1.89-1.33-2.48,.07-.21,.1-.44,.1-.67v-1.1c0-1.24-1.01-2.24-2.24-2.24h-.18c-1.24,0-2.24,1.01-2.24,2.24v1.1c0,.23,.04,.46,.1,.67-.75,.6-1.26,1.5-1.33,2.51-.22,.07-.38,.27-.38,.51,0,.3,.24,.54,.54,.54h14.94c.3,0,.54-.24,.54-.54,0-.25-.18-.47-.41-.53Zm-4.82-4.27c0-.64,.52-1.16,1.16-1.16h.18c.64,0,1.16,.52,1.16,1.16v1.1c0,.64-.52,1.16-1.16,1.16h-.18c-.64,0-1.16-.52-1.16-1.16v-1.1Zm-.41,2.7c.4,.4,.96,.64,1.57,.64h.18c.61,0,1.16-.24,1.57-.64,.44,.39,.74,.94,.82,1.55h-4.95c.08-.61,.38-1.16,.82-1.55Zm-7.7-2.7c0-.64,.52-1.16,1.16-1.16h.18c.64,0,1.16,.52,1.16,1.16v1.1c0,.64-.52,1.16-1.16,1.16h-.18c-.64,0-1.16-.52-1.16-1.16v-1.1Zm-.41,2.7c.4,.4,.96,.64,1.57,.64h.18c.61,0,1.16-.24,1.57-.64,.44,.39,.74,.94,.82,1.55h-4.95c.08-.61,.38-1.16,.82-1.55Z"/>
        <path class="cls-2" d="M36.74,22.23c-.02-1.1-.54-2.07-1.34-2.71,.07-.21,.1-.44,.1-.67v-1.1c0-1.24-1.01-2.24-2.24-2.24h-.18c-1.24,0-2.24,1.01-2.24,2.24v1.1c0,.23,.04,.46,.1,.67-.8,.64-1.31,1.6-1.34,2.69h-.95c-.03-1.09-.55-2.06-1.34-2.69,.07-.21,.1-.44,.1-.67v-1.1c0-1.24-1.01-2.24-2.24-2.24h-.18c-1.24,0-2.24,1.01-2.24,2.24v1.1c0,.23,.04,.46,.1,.67-.8,.64-1.32,1.62-1.35,2.72-.21,.07-.37,.27-.37,.51,0,.3,.24,.54,.54,.54h14.94c.3,0,.54-.24,.54-.54,0-.25-.17-.46-.4-.52Zm-4.83-4.48c0-.64,.52-1.16,1.16-1.16h.18c.64,0,1.16,.52,1.16,1.16v1.1c0,.64-.52,1.16-1.16,1.16h-.18c-.64,0-1.16-.52-1.16-1.16v-1.1Zm-.41,2.7c.4,.4,.96,.64,1.57,.64h.18c.61,0,1.16-.24,1.57-.64,.49,.44,.8,1.06,.83,1.76h-4.98c.03-.7,.34-1.32,.83-1.76Zm-7.7-2.7c0-.64,.52-1.16,1.16-1.16h.18c.64,0,1.16,.52,1.16,1.16v1.1c0,.64-.52,1.16-1.16,1.16h-.18c-.64,0-1.16-.52-1.16-1.16v-1.1Zm-.41,2.7c.4,.4,.96,.64,1.57,.64h.18c.61,0,1.16-.24,1.57-.64,.49,.44,.8,1.06,.83,1.76h-4.98c.03-.7,.34-1.32,.83-1.76Z"/>
        <path class="cls-2" d="M36.74,12.72c-.02-1.1-.54-2.07-1.34-2.71,.07-.21,.1-.44,.1-.67v-1.1c0-1.24-1.01-2.24-2.24-2.24h-.18c-1.24,0-2.24,1.01-2.24,2.24v1.1c0,.23,.04,.46,.1,.67-.8,.64-1.31,1.6-1.34,2.69h-.95c-.03-1.09-.55-2.06-1.34-2.69,.07-.21,.1-.44,.1-.67v-1.1c0-1.24-1.01-2.24-2.24-2.24h-.18c-1.24,0-2.24,1.01-2.24,2.24v1.1c0,.23,.04,.46,.1,.67-.8,.64-1.32,1.62-1.35,2.73-.21,.07-.37,.27-.37,.51,0,.3,.24,.54,.54,.54h14.94c.3,0,.54-.24,.54-.54,0-.25-.17-.46-.4-.52Zm-4.83-4.48c0-.64,.52-1.16,1.16-1.16h.18c.64,0,1.16,.52,1.16,1.16v1.1c0,.64-.52,1.16-1.16,1.16h-.18c-.64,0-1.16-.52-1.16-1.16v-1.1Zm-.41,2.7c.4,.4,.96,.64,1.57,.64h.18c.61,0,1.16-.24,1.57-.64,.49,.44,.8,1.06,.83,1.76h-4.98c.03-.7,.34-1.32,.83-1.76Zm-7.7-2.7c0-.64,.52-1.16,1.16-1.16h.18c.64,0,1.16,.52,1.16,1.16v1.1c0,.64-.52,1.16-1.16,1.16h-.18c-.64,0-1.16-.52-1.16-1.16v-1.1Zm-.41,2.7c.4,.4,.96,.64,1.57,.64h.18c.61,0,1.16-.24,1.57-.64,.49,.44,.8,1.06,.83,1.76h-4.98c.03-.7,.34-1.32,.83-1.76Z"/>
      </g>
    </g>
  </g>
</svg>