<?xml version="1.0" encoding="UTF-8" standalone="no"?><!DOCTYPE svg PUBLIC "-//W3C//DTD SVG 1.1//EN" "http://www.w3.org/Graphics/SVG/1.1/DTD/svg11.dtd"><svg width="100%" height="100%" viewBox="0 0 2250 2250" version="1.1" xmlns="http://www.w3.org/2000/svg" xmlns:xlink="http://www.w3.org/1999/xlink" xml:space="preserve" xmlns:serif="http://www.serif.com/" style="fill-rule:evenodd;clip-rule:evenodd;stroke-linejoin:round;stroke-miterlimit:2;"><rect x="0" y="0" width="2250" height="2250" style="fill:#fff;"/><clipPath id="_clip1"><rect id="DigitalMeal_favicon.svg" x="67.128" y="67.128" width="2115.74" height="2115.74"/></clipPath><g clip-path="url(#_clip1)"><rect x="67.128" y="67.128" width="2115.74" height="2115.74" style="fill:#fff;"/><g id="Logo"><g><path d="M583.313,1563.02c-3.571,-11.474 -7.037,-22.971 -10.695,-34.466c-9.262,-29.123 -16.192,-59.063 -23.022,-88.983c51.169,4.008 95.11,-1.578 132.952,-16.921c87.502,-33.456 151.839,-120.955 229.046,-249.632c15.442,-23.162 30.882,-54.046 48.898,-87.502c95.221,-177.572 236.765,-447.794 494.118,-414.338c74.634,10.295 172.428,56.618 218.751,229.044l7.722,38.603c61.765,-36.029 123.53,-54.043 180.148,-54.043c56.617,0 110.66,23.162 151.839,69.485c159.558,172.428 123.53,633.092 115.808,681.988l-2.573,18.017l-120.958,-0l2.575,-28.312c0,0 10.295,-118.382 2.573,-252.204c-10.295,-167.281 -41.176,-285.664 -90.074,-339.709c-20.587,-20.587 -38.604,-30.882 -64.337,-30.882c-51.471,0 -110.664,25.735 -164.706,69.485c7.719,221.324 -51.473,481.253 -141.548,550.738c-20.586,15.442 -43.748,23.162 -66.911,23.162c-15.44,-0 -33.454,-5.148 -48.896,-12.867c-84.926,-48.899 -115.81,-146.692 -82.354,-272.797c25.737,-105.513 97.796,-223.896 187.87,-316.545c7.719,-10.294 18.014,-18.014 25.734,-25.736c-2.573,-20.587 -5.148,-41.176 -10.295,-61.765c-15.439,-72.057 -48.896,-156.984 -123.53,-167.278c-175,-23.162 -288.236,193.014 -370.59,350c-18.014,36.029 -36.029,66.913 -51.47,95.222c-121.638,206.107 -235.513,325.713 -426.075,328.237l0,-0.001Zm974.241,-240.738c7.72,-38.601 12.867,-79.779 15.442,-120.955c-48.898,61.765 -84.929,131.25 -100.369,193.015c-10.294,43.75 -15.441,100.368 15.44,128.677c18.017,-20.587 48.898,-84.927 69.487,-200.737Z" style="fill:#1e1e1c;"/><path d="M110.519,1580.62l-0,-135.692l132.865,0l0,-715.201l-132.865,0l-0,-135.688l392.937,-0c130.037,-0 231.806,33.922 302.478,98.94c70.672,67.845 104.595,166.785 104.595,302.477l-0,183.748c-0,132.863 -33.923,234.629 -104.595,299.649c-70.672,65.018 -169.615,98.94 -302.478,98.94l-392.937,0l-0,2.827Zm285.516,-138.518l110.25,0c84.804,0 149.824,-22.616 189.399,-65.02c42.404,-42.403 62.191,-107.42 62.191,-192.228l0,-195.054c0,-87.634 -19.787,-149.825 -62.191,-192.229c-42.404,-42.403 -104.595,-62.19 -189.399,-62.19l-110.25,-0l0,706.721Z" style="fill:#1e1e1c;fill-rule:nonzero;"/></g></g><g id="Schutzraum"><rect x="-711.545" y="62.899" width="3671.4" height="2122.51" style="fill:none;"/></g></g></svg>
