<?xml version="1.0" encoding="UTF-8" standalone="no"?>
<!DOCTYPE svg PUBLIC "-//W3C//DTD SVG 1.1//EN" "http://www.w3.org/Graphics/SVG/1.1/DTD/svg11.dtd">
<!-- Created with Vectornator (http://vectornator.io/) -->
<svg height="100%" stroke-miterlimit="10" style="fill-rule:nonzero;clip-rule:evenodd;stroke-linecap:round;stroke-linejoin:round;" version="1.1" viewBox="0 0 1200 560" width="100%" xml:space="preserve" xmlns="http://www.w3.org/2000/svg" xmlns:vectornator="http://vectornator.io" xmlns:xlink="http://www.w3.org/1999/xlink"><script xmlns="" id="__gaOptOutExtension"/>
<defs/>
<g id="Ohne-Titel" vectornator:layerName="Ohne Titel">
<g opacity="1" vectornator:layerName="Ebene 1">
<path d="M87.7527 100.824L351.324 227.905L244.071 510.179L87.7527 100.824Z" fill="#2b9c97" fill-rule="nonzero" opacity="1" stroke="none" vectornator:layerName="path"/>
<path d="M85.9213 98.8303L244.073 512.987L352.584 227.402L85.9213 98.8303ZM89.5843 102.817L350.063 228.407L244.068 507.368L89.5843 102.817Z" fill="#2b9c97" fill-rule="nonzero" opacity="1" stroke="none" vectornator:layerName="path"/>
<path d="M166.077 213.607L445.376 286.991L244.567 510.939L166.077 213.607Z" fill="#ec9a35" fill-rule="nonzero" opacity="1" stroke="none" vectornator:layerName="path"/>
<path d="M164.672 212.204L244.073 512.987L447.213 286.44L164.672 212.204ZM167.481 215.01L443.538 287.542L245.06 508.891L167.481 215.01Z" fill="#ec9a35" fill-rule="nonzero" opacity="1" stroke="none" vectornator:layerName="path"/>
<path d="M35.9884 224.332L234.259 295.01L242.94 509.722L35.9884 224.332Z" fill="#01669c" fill-rule="nonzero" opacity="1" stroke="none" vectornator:layerName="path"/>
<path d="M33.2846 222.306L244.074 512.987L235.232 294.295L33.2846 222.306ZM38.6926 226.357L233.288 295.725L241.808 506.456L38.6926 226.357Z" fill="#01669c" fill-rule="nonzero" opacity="1" stroke="none" vectornator:layerName="path"/>
<g opacity="1" vectornator:layerName="path">
<clipPath clip-rule="nonzero" id="ClipPath">
<path d="M0 0L1200 0L1200 560L0 560L0 0Z"/>
</clipPath>
<g clip-path="url(#ClipPath)">
<path d="M229.134 120.724C225.412 120.724 221.733 120.078 218.199 118.804C201.471 112.773 192.767 94.2569 198.798 77.5289C203.395 64.7759 215.588 56.2069 229.138 56.2069C232.859 56.2069 236.538 56.8529 240.073 58.1279C248.176 61.0489 254.657 66.9509 258.322 74.7469C261.986 82.5429 262.395 91.2989 259.474 99.4019C254.877 112.155 242.683 120.724 229.134 120.724Z" fill="#2b9c97" fill-rule="nonzero" opacity="1" stroke="none" vectornator:layerName="path"/>
<path d="M229.137 55.7073C215.722 55.7073 203.139 64.0123 198.327 77.3593C192.193 94.3743 201.014 113.14 218.03 119.274C221.698 120.596 225.448 121.224 229.134 121.224C242.549 121.224 255.133 112.919 259.945 99.5723C266.078 82.5573 257.257 63.7903 240.242 57.6573C236.574 56.3343 232.824 55.7073 229.137 55.7073M229.137 56.7073C232.801 56.7073 236.423 57.3433 239.903 58.5973C247.881 61.4733 254.262 67.2843 257.869 74.9593C261.477 82.6343 261.88 91.2553 259.004 99.2323C254.477 111.788 242.473 120.224 229.134 120.224C225.47 120.224 221.848 119.588 218.369 118.333C210.39 115.457 204.01 109.646 200.403 101.971C196.795 94.2963 196.392 85.6763 199.268 77.6983C203.794 65.1433 215.798 56.7073 229.137 56.7073" fill="#2b9c97" fill-rule="nonzero" opacity="1" stroke="none" vectornator:layerName="path"/>
<path d="M403.813 257.115C400.091 257.115 396.412 256.469 392.878 255.195C384.774 252.274 378.293 246.371 374.629 238.576C370.964 230.78 370.555 222.023 373.476 213.92C378.074 201.167 390.267 192.598 403.816 192.598C407.538 192.598 411.217 193.244 414.751 194.519C422.855 197.44 429.336 203.342 433 211.138C436.665 218.934 437.074 227.69 434.153 235.793C429.556 248.546 417.362 257.115 403.813 257.115Z" fill="#ec9a35" fill-rule="nonzero" opacity="1" stroke="none" vectornator:layerName="path"/>
<path d="M403.816 192.098C390.401 192.098 377.818 200.403 373.006 213.75C366.872 230.765 375.693 249.531 392.709 255.665C396.377 256.987 400.127 257.615 403.813 257.615C417.228 257.615 429.812 249.31 434.624 235.963C440.757 218.947 431.936 200.181 414.921 194.048C411.253 192.725 407.503 192.098 403.816 192.098M403.816 193.098C407.48 193.098 411.102 193.734 414.582 194.988C431.051 200.925 439.62 219.154 433.683 235.623C429.156 248.179 417.152 256.615 403.813 256.615C400.149 256.615 396.527 255.979 393.048 254.724C376.578 248.787 368.01 230.558 373.947 214.089C378.473 201.534 390.477 193.098 403.816 193.098" fill="#ec9a35" fill-rule="nonzero" opacity="1" stroke="none" vectornator:layerName="path"/>
<path d="M61.669 209.027C57.947 209.027 54.268 208.381 50.734 207.107C34.005 201.077 25.302 182.561 31.332 165.832C35.93 153.079 48.122 144.51 61.672 144.51C65.394 144.51 69.073 145.156 72.607 146.431C89.336 152.461 98.039 170.977 92.009 187.705C87.412 200.458 75.218 209.027 61.669 209.027Z" fill="#01669c" fill-rule="nonzero" opacity="1" stroke="none" vectornator:layerName="path"/>
<path d="M61.6723 144.01C48.2573 144.01 35.6733 152.315 30.8613 165.662C24.7283 182.677 33.5493 201.443 50.5643 207.577C54.2323 208.899 57.9823 209.527 61.6693 209.527C75.0833 209.527 87.6673 201.222 92.4793 187.875C98.6133 170.86 89.7923 152.094 72.7763 145.96C69.1093 144.637 65.3593 144.01 61.6723 144.01M61.6723 145.01C65.3363 145.01 68.9583 145.646 72.4373 146.9C80.4163 149.777 86.7963 155.587 90.4033 163.262C94.0113 170.937 94.4143 179.558 91.5383 187.536C87.0123 200.091 75.0083 208.527 61.6693 208.527C58.0053 208.527 54.3823 207.891 50.9033 206.636C34.4343 200.699 25.8653 182.47 31.8023 166.001C36.3293 153.446 48.3333 145.01 61.6723 145.01" fill="#01669c" fill-rule="nonzero" opacity="1" stroke="none" vectornator:layerName="path"/>
<path d="M493.617 115.349C493.617 75.2041 520.627 52.0801 550.966 52.0801C566.691 52.0801 579.271 59.1101 587.596 67.8051L572.426 85.1941C566.506 79.6441 560.216 76.8701 551.706 76.8701C535.796 76.8701 523.032 90.9291 523.032 114.239C523.032 138.289 534.316 152.163 551.151 152.163C560.956 152.163 568.541 148.278 574.276 142.173L589.261 159.193C578.716 171.218 565.396 176.953 550.226 176.953C519.517 176.953 493.617 156.048 493.617 115.349" fill="#000101" fill-rule="nonzero" opacity="1" stroke="none" vectornator:layerName="path"/>
<path d="M607.021 54.3L635.881 54.3L635.881 174.733L607.021 174.733L607.021 54.3Z" fill="#000101" fill-rule="nonzero" opacity="1" stroke="none" vectornator:layerName="path"/>
<path d="M687.125 78.3496L654.38 78.3496L654.38 54.2996L748.544 54.2996L748.544 78.3496L715.8 78.3496L715.8 174.734L687.125 174.734L687.125 78.3496Z" fill="#000101" fill-rule="nonzero" opacity="1" stroke="none" vectornator:layerName="path"/>
<path d="M767.044 54.3L795.904 54.3L795.904 174.733L767.044 174.733L767.044 54.3Z" fill="#000101" fill-rule="nonzero" opacity="1" stroke="none" vectornator:layerName="path"/>
<path d="M816.069 157.344L868.238 78.3495L821.064 78.3495L821.064 54.2995L903.573 54.2995L903.573 71.5045L851.589 150.684L903.943 150.684L903.943 174.734L816.069 174.734L816.069 157.344Z" fill="#000101" fill-rule="nonzero" opacity="1" stroke="none" vectornator:layerName="path"/>
<path d="M923.922 54.2998L1000.14 54.2998L1000.14 78.3498L952.782 78.3498L952.782 100.919L993.296 100.919L993.296 124.969L952.782 124.969L952.782 150.684L1001.99 150.684L1001.99 174.733L923.922 174.733L923.922 54.2998Z" fill="#000101" fill-rule="nonzero" opacity="1" stroke="none" vectornator:layerName="path"/>
<path d="M1025.67 54.2998L1055.46 54.2998L1085.05 112.019C1089.31 120.159 1093.19 129.779 1096.89 139.214L1097.63 139.214C1096.15 126.264 1093.93 109.059 1093.93 94.8138L1093.93 54.2998L1121.13 54.2998L1121.13 174.733L1091.53 174.733L1061.75 117.014C1057.68 108.874 1053.79 99.2538 1050.09 89.8198L1049.35 89.8198C1050.83 103.139 1053.05 119.789 1053.05 134.219L1053.05 174.733L1025.67 174.733L1025.67 54.2998Z" fill="#000101" fill-rule="nonzero" opacity="1" stroke="none" vectornator:layerName="path"/>
<path d="M491.582 329.378L506.752 310.693C515.262 318.093 526.917 322.163 537.091 322.163C548.006 322.163 553.001 318.093 553.001 311.618C553.001 304.588 546.526 302.368 535.981 298.113L520.627 291.454C507.862 286.459 496.207 275.914 496.207 258.524C496.207 238.359 514.337 222.08 539.866 222.08C554.296 222.08 568.541 227.444 578.901 237.065L563.916 255.749C555.776 250.014 547.451 246.869 539.866 246.869C530.986 246.869 525.252 250.384 525.252 256.674C525.252 263.704 532.837 266.109 543.566 270.364L558.551 276.469C573.536 282.389 582.416 292.379 582.416 309.213C582.416 329.378 565.581 346.953 536.536 346.953C520.257 346.953 504.162 341.403 491.582 329.378" fill="#000101" fill-rule="nonzero" opacity="1" stroke="none" vectornator:layerName="path"/>
<path d="M596.847 285.349C596.847 245.204 623.857 222.08 654.196 222.08C669.921 222.08 682.501 229.11 690.826 237.805L675.656 255.195C669.736 249.644 663.446 246.87 654.936 246.87C639.026 246.87 626.262 260.929 626.262 284.239C626.262 308.288 637.546 322.163 654.381 322.163C664.186 322.163 671.771 318.279 677.506 312.174L692.491 329.194C681.946 341.218 668.626 346.953 653.456 346.953C622.747 346.953 596.847 326.048 596.847 285.349" fill="#000101" fill-rule="nonzero" opacity="1" stroke="none" vectornator:layerName="path"/>
<path d="M710.251 224.3L739.111 224.3L739.111 344.733L710.251 344.733L710.251 224.3Z" fill="#000101" fill-rule="nonzero" opacity="1" stroke="none" vectornator:layerName="path"/>
<path d="M766.86 224.3L843.079 224.3L843.079 248.35L795.72 248.35L795.72 270.919L836.234 270.919L836.234 294.969L795.72 294.969L795.72 320.684L844.929 320.684L844.929 344.733L766.86 344.733L766.86 224.3Z" fill="#000101" fill-rule="nonzero" opacity="1" stroke="none" vectornator:layerName="path"/>
<path d="M868.608 224.3L898.393 224.3L927.992 282.019C932.247 290.159 936.132 299.779 939.832 309.214L940.572 309.214C939.092 296.264 936.872 279.059 936.872 264.814L936.872 224.3L964.067 224.3L964.067 344.733L934.467 344.733L904.682 287.014C900.613 278.874 896.728 269.254 893.028 259.82L892.288 259.82C893.768 273.139 895.988 289.789 895.988 304.219L895.988 344.733L868.608 344.733L868.608 224.3Z" fill="#000101" fill-rule="nonzero" opacity="1" stroke="none" vectornator:layerName="path"/>
<path d="M986.452 285.349C986.452 245.204 1013.46 222.08 1043.8 222.08C1059.53 222.08 1072.11 229.11 1080.43 237.805L1065.26 255.195C1059.34 249.644 1053.05 246.87 1044.54 246.87C1028.63 246.87 1015.87 260.929 1015.87 284.239C1015.87 308.288 1027.15 322.163 1043.99 322.163C1053.79 322.163 1061.38 318.279 1067.11 312.174L1082.1 329.194C1071.55 341.218 1058.23 346.953 1043.06 346.953C1012.35 346.953 986.452 326.048 986.452 285.349" fill="#000101" fill-rule="nonzero" opacity="1" stroke="none" vectornator:layerName="path"/>
<path d="M1099.86 224.3L1176.07 224.3L1176.07 248.35L1128.72 248.35L1128.72 270.919L1169.23 270.919L1169.23 294.969L1128.72 294.969L1128.72 320.684L1177.92 320.684L1177.92 344.733L1099.86 344.733L1099.86 224.3Z" fill="#000101" fill-rule="nonzero" opacity="1" stroke="none" vectornator:layerName="path"/>
<path d="M491.582 497.344L543.751 418.35L496.577 418.35L496.577 394.301L579.086 394.301L579.086 411.505L527.102 490.684L579.456 490.684L579.456 514.734L491.582 514.734L491.582 497.344Z" fill="#000101" fill-rule="nonzero" opacity="1" stroke="none" vectornator:layerName="path"/>
<path d="M652.531 372.1C652.531 364.515 658.081 358.781 666.036 358.781C673.806 358.781 679.356 364.515 679.356 372.1C679.356 379.87 673.806 385.605 666.036 385.605C658.081 385.605 652.531 379.87 652.531 372.1M611.276 372.1C611.276 364.515 616.827 358.781 624.596 358.781C632.551 358.781 638.101 364.515 638.101 372.1C638.101 379.87 632.551 385.605 624.596 385.605C616.827 385.605 611.276 379.87 611.276 372.1M597.032 458.124L597.032 394.3L625.706 394.3L625.706 461.269C625.706 484.208 632.551 492.163 645.686 492.163C659.006 492.163 666.221 484.208 666.221 461.269L666.221 394.3L693.786 394.3L693.786 458.124C693.786 498.824 677.691 516.954 645.686 516.954C613.682 516.954 597.032 498.824 597.032 458.124" fill="#000101" fill-rule="nonzero" opacity="1" stroke="none" vectornator:layerName="path"/>
<path d="M762.975 449.614C776.665 449.614 784.065 443.694 784.065 432.224C784.065 420.754 776.665 417.054 762.975 417.054L749.84 417.054L749.84 449.614L762.975 449.614ZM720.981 394.3L765.195 394.3C790.725 394.3 812.184 403.18 812.184 432.224C812.184 449.799 803.86 461.084 791.465 467.004L818.289 514.733L786.1 514.733L763.9 472.368L749.84 472.368L749.84 514.733L720.981 514.733L720.981 394.3Z" fill="#000101" fill-rule="nonzero" opacity="1" stroke="none" vectornator:layerName="path"/>
<path d="M835.31 394.3L864.17 394.3L864.17 514.733L835.31 514.733L835.31 394.3Z" fill="#000101" fill-rule="nonzero" opacity="1" stroke="none" vectornator:layerName="path"/>
<path d="M886.37 455.349C886.37 415.204 913.38 392.08 943.719 392.08C959.444 392.08 972.024 399.11 980.349 407.805L965.179 425.195C959.259 419.644 952.969 416.87 944.459 416.87C928.549 416.87 915.785 430.929 915.785 454.239C915.785 478.288 927.069 492.163 943.904 492.163C953.709 492.163 961.294 488.279 967.029 482.174L982.014 499.194C971.469 511.218 958.149 516.953 942.979 516.953C912.27 516.953 886.37 496.048 886.37 455.349" fill="#000101" fill-rule="nonzero" opacity="1" stroke="none" vectornator:layerName="path"/>
<path d="M999.773 394.3L1028.63 394.3L1028.63 440.179L1068.41 440.179L1068.41 394.3L1097.08 394.3L1097.08 514.733L1068.41 514.733L1068.41 465.154L1028.63 465.154L1028.63 514.733L999.773 514.733L999.773 394.3Z" fill="#000101" fill-rule="nonzero" opacity="1" stroke="none" vectornator:layerName="path"/>
</g>
</g>
</g>
</g>
</svg>