<?xml version="1.0" encoding="UTF-8" standalone="no"?><!DOCTYPE svg PUBLIC "-//W3C//DTD SVG 1.1//EN" "http://www.w3.org/Graphics/SVG/1.1/DTD/svg11.dtd"><svg width="100%" height="100%" viewBox="0 0 14480 14480" version="1.1" xmlns="http://www.w3.org/2000/svg" xmlns:xlink="http://www.w3.org/1999/xlink" xml:space="preserve" xmlns:serif="http://www.serif.com/" style="fill-rule:evenodd;clip-rule:evenodd;stroke-linejoin:round;stroke-miterlimit:2;"><rect x="0" y="0" width="14479.2" height="14479.2" style="fill:url(#_Linear1);"/><path d="M14479.2,0l-0,14479.2l-14479.2,-0l0,-14479.2l14479.2,0Zm-10106.1,10094.8c833.074,-292.596 1438.66,-1025.1 2075.33,-2103.89c105.675,-193.733 228.959,-405.087 352.238,-651.65c563.592,-1074.34 1338.53,-2553.75 2536.15,-2395.24c510.762,70.45 739.721,651.65 845.383,1144.78c35.225,140.9 52.846,281.804 70.45,422.687c-52.829,52.85 -123.283,105.679 -176.112,176.129c-616.421,634.046 -1109.56,1444.2 -1285.69,2166.29c-228.958,863 -17.604,1532.25 563.592,1866.89c105.679,52.829 228.958,88.054 334.62,88.054c158.521,-0 317.03,-52.829 457.913,-158.509c616.425,-475.52 1021.51,-2254.35 968.683,-3768.99c369.842,-299.409 774.929,-475.521 1127.17,-475.521c176.108,-0 299.408,70.45 440.292,211.337c334.637,369.863 545.975,1180.02 616.425,2324.81c52.846,915.816 -17.604,1725.97 -17.604,1725.97l-17.621,193.75l827.779,-0l17.604,-123.296c52.846,-334.625 299.408,-3487.19 -792.537,-4667.21c-281.805,-317.016 -651.65,-475.52 -1039.11,-475.52c-387.467,-0 -810.158,123.279 -1232.85,369.841l-52.846,-264.183c-317.012,-1180 -986.266,-1497.01 -1497.03,-1567.47c-1761.2,-228.958 -2729.86,1620.31 -3381.51,2835.54c-123.296,228.958 -228.959,440.312 -334.634,598.821c-2.432,4.054 -4.863,8.102 -7.291,12.144l-0,-1227.31c-0,-928.612 -232.155,-1605.71 -715.8,-2070.02c-483.646,-444.95 -1180.11,-677.1 -2070.02,-677.1l-2689.08,0l-0,928.592l909.271,0l-0,4894.5l-909.271,0l-0,909.267l2689.08,-0c542.14,-0 1001.75,-82.532 1387.04,-243.494Zm-1056.1,-701.269c-5.046,-0.37 -10.103,-0.753 -15.17,-1.15l0.614,2.686c-94.564,9.712 -193.643,14.623 -297.018,14.623l-754.496,-0l0,-4836.48l754.496,-0c580.363,-0 1005.97,135.416 1296.16,425.604c290.191,290.192 425.608,715.8 425.608,1315.52l0,1334.86c0,580.384 -135.417,1025.33 -425.608,1315.52c-220.111,235.844 -555.239,382.244 -984.589,428.808Zm6882.83,-803.825c-140.904,792.555 -352.241,1232.87 -475.537,1373.75c-211.338,-193.729 -176.113,-581.195 -105.663,-880.604c105.663,-422.691 352.242,-898.212 686.875,-1320.9c-17.621,281.788 -52.845,563.592 -105.675,827.758Z" style="fill:#212121;"/><defs><linearGradient id="_Linear1" x1="0" y1="0" x2="1" y2="0" gradientUnits="userSpaceOnUse" gradientTransform="matrix(9789.21,7060.51,-7060.51,9789.21,1517.84,3206.22)"><stop offset="0" style="stop-color:#89f8c3;stop-opacity:1"/><stop offset="0.5" style="stop-color:#ff9bba;stop-opacity:1"/><stop offset="1" style="stop-color:#ffe2a5;stop-opacity:1"/></linearGradient></defs></svg>
