<?xml version="1.0" encoding="UTF-8" standalone="no"?><!DOCTYPE svg PUBLIC "-//W3C//DTD SVG 1.1//EN" "http://www.w3.org/Graphics/SVG/1.1/DTD/svg11.dtd"><svg width="100%" height="100%" viewBox="0 0 200 200" version="1.1" xmlns="http://www.w3.org/2000/svg" xmlns:xlink="http://www.w3.org/1999/xlink" xml:space="preserve" xmlns:serif="http://www.serif.com/" style="fill-rule:evenodd;clip-rule:evenodd;stroke-linejoin:round;stroke-miterlimit:2;"><g id="Logo"><g><rect x="0" y="0" width="200" height="200" style="fill:#212121;"/><path d="M170.708,85.333l0.042,0c-3.875,-4.208 -8.792,-6.416 -14.25,-6.416c-5.458,-0 -11.125,1.791 -16.875,5.166c-0.25,-1.208 -0.542,-2.416 -0.833,-3.541c-4.375,-16.084 -13.5,-20.542 -20.375,-21.417c-24.167,-3.125 -37.375,22.083 -46.084,38.708c-1.625,3.084 -3.125,5.959 -4.5,8.292c-7.208,12.083 -13.291,20.208 -21.458,23.417c-7.542,2.958 -17.625,1.916 -31.292,-3.167l-3.958,10.583c35.5,13.334 50.208,2.209 66.417,-25.041c1.5,-2.542 3.125,-5.584 4.791,-8.792c7.709,-14.708 18.292,-34.875 34.667,-32.75c6.917,0.875 10.083,8.958 11.5,15.625c0.417,1.833 0.708,3.833 0.917,5.917c-0.834,0.75 -1.625,1.541 -2.417,2.333c-8.458,8.667 -15.042,19.708 -17.583,29.458c-3.084,11.667 -0.25,20.959 7.75,25.5c1.458,0.834 3.041,1.209 4.583,1.209c2.125,-0 4.25,-0.75 6.167,-2.25c8.458,-6.584 13.958,-30.709 13.125,-51.417c5.166,-4 10.583,-6.583 15.416,-6.583c2.334,-0 4.209,0.875 5.959,2.791c4.541,4.959 7.541,16.209 8.375,31.709c0.708,12.541 -0.25,23.541 -0.25,23.666l-0.167,2.584l11.292,-0l0.125,-1.584c0.416,-4.833 3.708,-47.875 -11.084,-63.958l0,-0.042Zm-42.458,34.375c-1.958,10.834 -4.875,16.792 -6.542,18.834c-2.958,-2.709 -2.416,-7.959 -1.333,-12.042c1.542,-5.792 4.917,-12.167 9.292,-18c-0.25,3.708 -0.75,7.5 -1.417,11.167l0,0.041Z" style="fill:#fff;fill-rule:nonzero;"/></g></g></svg>
