<?xml version="1.0" encoding="UTF-8" standalone="no"?><!DOCTYPE svg PUBLIC "-//W3C//DTD SVG 1.1//EN" "http://www.w3.org/Graphics/SVG/1.1/DTD/svg11.dtd"><svg width="100%" height="100%" viewBox="0 0 584 292" version="1.1" xmlns="http://www.w3.org/2000/svg" xmlns:xlink="http://www.w3.org/1999/xlink" xml:space="preserve" xmlns:serif="http://www.serif.com/" style="fill-rule:evenodd;clip-rule:evenodd;stroke-linejoin:round;stroke-miterlimit:16;"><g id="Ebene2"><path d="M42.032,175.533c0,0 0.065,-3.846 1.548,-7.263c1.128,-2.599 3.201,-6.466 5.085,-8.439c1.293,-1.355 3.79,-5.058 11.226,-8.817c9.118,-4.608 19.458,-5.967 29.873,-6.199c17.825,-0.398 30.761,2.386 44.378,4.978c22.384,4.261 62.472,18.251 89.003,29.258c9.857,4.089 27.833,12.833 45.044,18.152c10.564,3.266 22.46,5.643 31.994,5.343c11.18,-0.351 22.479,-3.711 31.12,-11.011c7.964,-6.729 17.636,-18.819 23.17,-27.253c6.721,-10.241 16.036,-28.513 22.302,-39.914c6.3,-11.463 13.786,-22.688 20.914,-30.485c5.917,-6.473 13.839,-11.339 20.996,-14.51c6.903,-3.059 17.042,-3.193 22.733,-1.729c7.9,2.032 15.02,6.552 20.527,18.037c2.698,5.625 5.641,16.136 6.657,24.115c1.193,9.368 1.379,21.613 0.858,32.166c-0.811,16.409 -2.757,24.322 -5.206,34.171c-2.472,9.951 -5.884,18.655 -10.061,24.099c-2.939,3.831 -5.12,6.415 -8.495,6.066c-3.375,-0.349 -8.796,-4.849 -10.896,-9.305c-2.153,-4.567 -3.069,-10.638 -2.379,-16.028c0.931,-7.273 2.483,-13.923 8.322,-26.468c3.449,-7.41 16.705,-25.775 22.77,-30.998c9.63,-8.292 15.744,-14.347 31.293,-20.254c6.028,-2.291 15.3,-2.708 22.047,0.63c4.361,2.158 8.557,6.313 11.927,12.39c5.823,10.501 8.764,25.654 9.834,32.406c1.222,7.71 2.189,19.33 2.499,28.115c0.32,9.077 0.2,20.897 -0.149,27.725c-0.217,4.233 -0.559,7.682 -0.659,12.311" style="fill:none;stroke:#fff;stroke-width:19.58px;"/></g></svg>
