<?xml version="1.0" encoding="UTF-8" standalone="no"?><!DOCTYPE svg PUBLIC "-//W3C//DTD SVG 1.1//EN" "http://www.w3.org/Graphics/SVG/1.1/DTD/svg11.dtd"><svg width="100%" height="100%" viewBox="0 0 3475 3475" version="1.1" xmlns="http://www.w3.org/2000/svg" xmlns:xlink="http://www.w3.org/1999/xlink" xml:space="preserve" xmlns:serif="http://www.serif.com/" style="fill-rule:evenodd;clip-rule:evenodd;stroke-linejoin:round;stroke-miterlimit:2;"><rect x="0" y="0" width="3475" height="3475" style="fill:#fff;"/><g id="Logo"><g><path d="M847.808,2456.93c-5.866,-18.845 -11.558,-37.729 -17.566,-56.608c-15.213,-47.833 -26.596,-97.008 -37.813,-146.15c84.042,6.583 156.213,-2.592 218.367,-27.792c143.717,-54.95 249.387,-198.662 376.196,-410.008c25.362,-38.042 50.721,-88.767 80.312,-143.717c156.396,-291.654 388.875,-735.479 811.563,-680.529c122.583,16.909 283.204,92.992 359.287,376.192l12.683,63.404c101.446,-59.175 202.892,-88.762 295.884,-88.762c92.991,-0 181.754,38.041 249.387,114.125c262.067,283.204 202.892,1039.82 190.209,1120.13l-4.225,29.591l-198.667,0l4.229,-46.5c0,0 16.908,-194.437 4.225,-414.233c-16.908,-274.75 -67.629,-469.187 -147.942,-557.954c-33.812,-33.813 -63.404,-50.721 -105.67,-50.721c-84.538,0 -181.759,42.267 -270.521,114.125c12.679,363.513 -84.542,790.433 -232.484,904.558c-33.812,25.363 -71.854,38.042 -109.899,38.042c-25.359,0 -54.946,-8.454 -80.309,-21.133c-139.487,-80.313 -190.212,-240.934 -135.262,-448.054c42.271,-173.3 160.625,-367.738 308.566,-519.909c12.679,-16.908 29.588,-29.587 42.267,-42.271c-4.225,-33.812 -8.454,-67.629 -16.908,-101.445c-25.359,-118.35 -80.309,-257.838 -202.892,-274.746c-287.429,-38.042 -473.413,317.016 -608.675,574.858c-29.587,59.175 -59.175,109.9 -84.537,156.396c-199.784,338.521 -386.817,534.967 -699.805,539.112Zm1600.14,-395.4c12.679,-63.4 21.133,-131.033 25.362,-198.662c-80.312,101.446 -139.491,215.571 -164.85,317.017c-16.908,71.858 -25.362,164.85 25.359,211.345c29.591,-33.812 80.312,-139.487 114.129,-329.7Z" style="fill:#1e1e1c;"/><path d="M71.267,2485.83l-0,-222.863l218.225,0l-0,-1174.68l-218.225,0l-0,-222.862l645.379,-0c213.579,-0 380.729,55.716 496.804,162.504c116.075,111.433 171.792,273.937 171.792,496.804l-0,301.796c-0,218.221 -55.717,385.366 -171.792,492.158c-116.075,106.788 -278.583,162.504 -496.804,162.504l-645.379,0l-0,4.642Zm468.946,-227.504l181.079,-0c139.287,-0 246.079,-37.146 311.079,-106.792c69.646,-69.646 102.146,-176.433 102.146,-315.725l-0,-320.367c-0,-143.933 -32.5,-246.079 -102.146,-315.725c-69.646,-69.645 -171.792,-102.145 -311.079,-102.145l-181.079,-0l-0,1160.75Z" style="fill:#1e1e1c;fill-rule:nonzero;"/></g></g><g id="Schutzraum"><rect x="-1278.93" y="-6.946" width="6030.08" height="3486.11" style="fill:none;"/></g></svg>