<?xml version="1.0" encoding="UTF-8"?><svg id="a" xmlns="http://www.w3.org/2000/svg" viewBox="0 0 2500 666.773"><path d="M1395.004,662.361c-65.072-3.651-117.825-41.671-165.129-83.023-49.416-43.198-96.997-96.511-137.536-148.151-36.044-45.913-70.572-107.246-121.437-137.795-17.41-10.456-23.744-12.215-43.955-6.255-75.061,22.134-86.72,134.844-16.72,172.673,39.965,21.598,99.898,16.022,139.731-3.721v63.468c-77.511,18.659-170.692,24.318-222.074-48.325-60.613-85.693-17.553-206.154,84.476-230.946-25.025-22.123-46.086-54.093-48.672-88.327-7.336-97.124,71.819-137.721,158.21-130.614,21.139,1.739,42.047,6.483,62.987,9.509v66.641c-9.334-2.648-17.678-8.216-26.971-11.655-37.759-13.972-98.83-16.33-124.819,20.211-31.876,44.82,17.224,96.905,53.945,119.378l230.043-.049c11.008-80.745,82.883-153.92,165.697-158.613,127.717-7.237,183.525,86.121,174.145,203.661-.133,1.665-1.651,10.604-2.247,10.98l-272.932.138c2.56,56.877,35.282,109.606,91.644,125.798,42.486,12.206,85.684,4.53,124.995-13.48,4.679-2.143,13.524-8.34,17.276-9.284,1.156-.291,1.793-.521,2.695.531l22.566,41.2c-54.389,32.549-116.848,46.995-179.799,33.489-84.901-18.215-143.617-89.745-146.201-176.514l-1.587-1.587-177.133-1.2c-.684,2.472.633,1.783,1.349,2.414,12.799,11.28,24.654,25.254,35.665,38.332,67.881,80.627,123.775,162.512,206.974,230.019,50.831,41.244,95.187,66.626,163.855,56.972,26.843-3.774,52.603-13.754,75.835-27.33l23.171,40.923c.411,2.488-11.452,8.635-13.974,10.036-30.59,16.986-71.814,28.309-106.554,30.494h-27.519ZM1497.671,225.491c-2-33.807-10.925-70.115-39.869-90.792-31.405-22.435-78.681-22.656-112.196-4.591-36.271,19.551-57.001,55.497-63.854,95.383h215.919Z"/><path d="M0,160.965l51.868-.006c1.678,15.952,2.45,32.127,4.334,48.059.276,2.336.735,4.685,3.554,3.818,3.664-5.121,8.611-10.08,13.261-14.334,38.853-35.546,77.983-55.889,132.329-43.366,34.37,7.92,54.907,33.464,67.216,65.064,1.216.28,11.943-12.104,14.257-14.293,42.053-39.786,86.862-68.925,147.411-47.861,80.608,28.043,67.075,134.229,68.479,201.3,1.25,59.75-.424,126.579,79.938,120,37.372-3.059,65.892-34.144,87.337-61.865V160.965h61.389v362.825h-50.275l-7.425-57.115c-1.533-.281-13.118,14.239-15.306,16.415-34.861,34.672-71.371,54.42-122.26,49.149-120.524-12.484-90.165-161.503-94.699-244.911-1.795-33.03-10.893-71.665-47.663-80.359-47.061-11.127-81.367,23.152-111.145,53.958v262.863h-61.389l.044-238.577c-2.652-28.218-8.042-61.304-36.711-74.38-47.219-21.536-92.89,16.553-122.097,50.094v262.863H0V160.965Z"/><path d="M2419.56,4.411l.011,82.508c9.139-6.511,15.621-14.236,26.469-18.492,20.499-8.044,44.091-2.965,51.082,19.784,1.576,5.127,1.363,9.719,2.879,14.576v89.913l-7.415.005c-1.536-28.086,2.086-58.367-.008-86.203-1.428-18.994-8.861-34.473-30.151-34.459-17.978.012-31.369,12.822-42.866,24.925v94.144l-1.752,1.423-6.253-.829-.462-187.295h8.467Z"/><path d="M1732.642,287.901c31.924,30.603,5.95,86.415-39.195,75.666-6.066-1.444-9.398-6.165-14.781-1.083-7.044,6.65-9.822,21.467-1.584,28.016,19.106,15.189,76.573-9.237,85.771,24.291,13.051,47.573-73.908,67.001-100.609,33.907-14.021-17.378-3.659-37.704,12.175-49.214l.003-1.552c-10.542-4.338-12.93-18.738-8.985-28.575,2.393-5.967,8.199-8.926,11.145-14.286-6.882-8.253-13.728-17.425-14.845-28.571-2.997-29.876,18.945-52.639,49.093-49.063,3.993.474,7.809,2.64,11.749,3.067,12.412,1.346,27.044-1.011,39.704-.013l-1.593,7.409h-28.048ZM1696.38,284.981c-36.383,5.639-35.568,70.349,6.125,72.728,47.26,2.697,49.486-81.348-6.125-72.728ZM1681.551,402.34c-5.294,1.138-14.454,13.632-16.112,18.852-15.452,48.645,90.571,47.953,90.564,2.636-.004-26.348-39.623-18.824-56.746-19.525-4.912-.201-13.356-2.898-17.706-1.963Z"/><path d="M2150.72,392.623v69.815h-7.409v-181.941l6.355-.006,1.065,15.872c11.033-7.758,23.843-17.449,37.693-18.91,88.553-9.343,65.85,162.837-20.42,124.87-6.097-2.683-11.178-7.123-17.284-9.7ZM2186.43,284.981c-12.082,1.878-27.022,13.155-35.491,21.651l.323,76.458c33.742,30.693,75.499,18.09,83.66-27.431,6.094-33.987-5.561-77.351-48.492-70.677Z"/><path d="M1741.109,130.289c-1.877,47.842,43.473,74.631,83.592,46.544l3.198,7.388c-8.471,4.036-16.779,8.659-26.2,10.324-81.765,14.447-90.932-112.678-26.755-128.287,30.237-7.354,58.248,15.703,58.248,46.577v15.867l-1.588,1.587h-90.495ZM1825.783,122.884c-1.147-20.773-6.266-44.032-29.422-49.401-31.713-7.353-53.414,20.289-55.252,49.401h84.674Z"/><path d="M2060.754,130.289h-91.025c-1.884,40.027,29.649,68.798,69.349,53.97,5.367-2.004,9.173-5.249,14.25-7.425.053,2.465,3.207,5.01,1.666,7.415-2.182,3.405-21.909,9.727-26.652,10.437-87.113,13.046-87-129.303-13.646-130.063,35.861-.372,50.283,34.74,46.058,65.667ZM2053.345,122.884c3.217-70.796-80.874-63.892-83.616,0h83.616Z"/><path d="M1903.851,277.597c83.92-11.347,85.088,136.265,3.976,129.818-66.396-5.277-66.346-121.385-3.976-129.818ZM1903.832,284.982c-49.994,7.772-51.91,109.598,3.99,115.035,69.795,6.788,68.849-126.359-3.99-115.035Z"/><path d="M2171.888,192.699l-6.355.006-1.065-16.93c-10.25,6.69-19.656,14.094-31.753,17.442-28.331,7.842-53.876-5.986-49.645-37.98,4.075-30.813,55.069-37.576,79.677-39.902,3.37-1.048,1.104-14.808.406-18.1-7.56-35.667-47.327-27.845-69.141-10.359-1.376.321-6.272-4.581-3.124-7.388,11.935-10.64,39.177-17.064,54.574-13.231,13.954,3.473,26.426,19.666,26.426,33.884v92.557ZM2164.479,121.827c-19.881,1.71-69.483,8.5-72.938,33.415-1.741,12.559,1.235,25.309,13.894,30.354,21.77,8.677,42.968-5.253,59.044-18.813v-44.956Z"/><path d="M2012.066,280.496v83.037c0,6.398,3.263,20.436,6.948,25.848,16.848,24.742,54.408,3.637,66.083-16.327v-92.557h8.467v122.176l-7.413,1.592-1.578-21.156c-13.731,17.332-34.396,29.977-57.213,22.261-13.607-4.602-22.704-21.708-22.704-35.489v-89.384h7.409Z"/><path d="M1930.562,76.361l-4.752,7.29c-16.171-17.331-60.44-16.031-59.879,13.334.413,21.618,36.561,26.64,51.98,34.846,18.533,9.863,26.753,29.498,13.957,47.888-17.034,24.479-60.502,17.337-79.58-1.412l5.622-5.618c15.507,17.111,59.971,24.344,69.715-1.44,13.711-36.279-45.611-37.605-62.67-55.25-14.823-15.333-6.728-39.389,11.972-47.25,18.673-7.849,37.195-2.807,53.634,7.613Z"/><path d="M2379.32,179.97c-14.855,11.113-30.114,17.825-49.083,14.732-64.037-10.441-60.719-125.137,6.369-129.855,14.03-.987,30.604,5.327,39.486,16.116l-5.604,4.824c-26.181-26.26-63.597-12.03-74.191,21.274-17.286,54.344,26.906,107.8,78.454,66.697l4.57,6.212Z"/><path d="M2218.459,67.879l6.299.057,1.12,23.215c11.038-15.665,26.416-33.192,47.705-23.661l-1.188,6.698c-19.469-4.86-31.286,4.222-40.622,20.221-1.089,1.867-5.905,10.846-5.905,12.081v86.211h-7.409v-124.82Z"/><path d="M1667.019,67.879l6.356-.005,1.577,23.272c9.68-17.19,26.079-31.751,47.109-24.32l-1.065,7.404c-15.409-3.484-26.192.085-35.803,12.341-1.742,2.222-10.765,17.358-10.765,18.86v87.268h-7.409v-124.82Z"/><path d="M1799.323,404.259h-7.409v-123.762l6.356-.005,1.063,22.219c10.432-15.58,27.383-33.018,47.476-22.666l-2.463,6.616c-16.124-6.47-29.802,4.137-38.057,17.194-.989,1.564-6.967,12.392-6.967,13.136v87.268Z"/></svg>