<?xml version="1.0" encoding="UTF-8" standalone="no"?><!DOCTYPE svg PUBLIC "-//W3C//DTD SVG 1.1//EN" "http://www.w3.org/Graphics/SVG/1.1/DTD/svg11.dtd"><svg width="100%" height="100%" viewBox="0 0 2500 625" version="1.1" xmlns="http://www.w3.org/2000/svg" xmlns:xlink="http://www.w3.org/1999/xlink" xml:space="preserve" xmlns:serif="http://www.serif.com/" style="fill-rule:evenodd;clip-rule:evenodd;stroke-linejoin:round;stroke-miterlimit:2;"><g id="Akronym_mu_e"><g><path d="M701.25,149.26l0,243.75c-15.833,20.416 -30.833,35 -45,44.166c-13.75,9.167 -30,13.75 -47.917,13.75c-17.916,0 -39.166,-7.5 -49.166,-22.083c-10,-14.583 -15.417,-37.917 -15.417,-70l-0.833,-62.5l-0,-21.25c-0,-43.75 -8.75,-77.083 -25.834,-100c-17.083,-22.917 -43.333,-34.167 -78.75,-34.167c-35.416,0 -40.416,6.25 -58.75,18.334c-18.333,12.083 -36.666,27.916 -54.583,47.5c-7.083,-20.834 -17.917,-36.667 -32.917,-48.334c-15,-11.666 -35.416,-17.5 -62.083,-17.5c-26.667,0 -39.583,5.417 -57.083,16.667c-17.917,11.25 -34.584,25 -49.584,41.25l-2.083,-0l-5,-49.583l-47.917,-0l0,343.75l57.917,-0l0,-248.75c32.083,-35.417 60.833,-52.917 86.25,-52.917c25.417,-0 38.333,7.5 48.75,22.083c10.417,14.584 15.417,37.917 15.417,70l-0,210l57.916,0l0,-248.75c32.084,-35.416 60.834,-52.916 86.25,-52.916c25.417,-0 37.5,7.5 47.917,22.083c10.417,14.583 15.417,37.917 15.417,70l-0,84.167c-0,43.75 8.333,77.083 25.416,100c17.084,22.916 43.75,34.166 80,34.166c36.25,0 44.167,-5.833 62.084,-17.083c17.916,-11.25 35,-26.25 50.833,-45.417l2.083,0l5,53.75l47.917,0l0,-344.166l-57.917,-0l1.667,-0Z" style="fill:#1d1d1b;fill-rule:nonzero;"/><path d="M1500.83,105.926c-26.666,-30.416 -64.166,-45.833 -112.916,-45.833c-48.75,-0 -56.667,7.5 -82.917,22.917c-26.25,15.416 -47.5,37.083 -64.167,65c-10.833,18.333 -18.333,39.583 -22.083,62.916l-218.333,0c-128.75,-90.416 -25.834,-177.916 81.666,-126.25l11.25,5.834l0,-63.75l-40.416,-6.667l-1.25,-0c-12.917,-2.083 -26.667,-2.917 -37.917,-3.333c-130.417,-5.417 -171.667,135.416 -82.917,207.5c-162.083,44.166 -132.916,282.5 45.834,275.833c20,-0.417 40.416,-2.083 55.833,-5.417l27.5,-5.833l0,-60l-11.25,4.583c-10.417,4.167 -29.167,12.5 -63.333,11.25c-139.584,0.417 -124.167,-176.25 -18.334,-179.583c21.25,10 52.917,24.167 109.584,107.917c-0,-0 94.166,131.666 195.833,205.416c11.667,8.75 22.5,15.417 35.417,22.5c65.833,37.084 157.916,25 219.166,-14.583l-22.916,-40c-56.667,34.583 -130.834,39.167 -189.584,-0.833c-90.833,-62.084 -156.666,-149.584 -219.166,-228.75c-17.5,-22.084 -34.584,-42.084 -48.334,-54.167c2.084,-1.667 77.917,-0.833 169.167,-0c1.667,32.917 9.583,61.667 24.167,86.25c16.25,27.917 38.333,49.583 66.25,64.583c27.916,15 58.75,22.5 92.916,22.5c34.167,0 49.584,-3.75 70.417,-11.25c20.833,-7.5 39.167,-15.833 55.417,-25.833l-22.917,-40c-14.167,8.333 -29.167,15 -44.583,20.417c-15.417,5 -32.5,7.916 -50.834,7.916c-36.666,0 -66.666,-11.25 -89.583,-34.166c-22.917,-22.5 -35.417,-52.5 -38.333,-90c83.75,0.833 168.75,0.833 215,-0.834l43.333,0c0.833,-4.583 1.667,-9.583 2.083,-15.833l0,-18.75c0,-51.25 -13.333,-92.083 -39.583,-122.5l0.833,0.833Zm-183.75,31.25c21.25,-19.583 45.417,-29.166 72.084,-29.166c26.666,-0 53.333,9.583 69.583,28.333c15.417,17.5 23.333,42.083 24.583,74.167l-203.333,-0c5,-31.25 17.5,-55.834 37.083,-73.75l0,0.416Z" style="fill:#1d1d1b;fill-rule:nonzero;"/><path d="M1642.92,61.76l7.083,-0l0.833,22.083l0.417,-0c7.917,-14.167 19.167,-25 33.333,-25c14.167,-0 7.5,0.417 11.25,2.5l-2.083,7.083c-3.75,-1.25 -5.833,-2.083 -10.417,-2.083c-10.833,-0 -23.75,8.333 -32.916,31.25l-0,81.667l-7.5,-0l-0,-117.5Z" style="fill:#1d1d1b;fill-rule:nonzero;"/><path d="M1705.83,120.51c0,-38.334 24.584,-62.084 50.834,-62.084c26.25,0 44.166,19.167 44.166,54.167c0,35 0,5 -0.416,7.917l-86.667,-0c0,31.25 18.333,54.583 46.25,54.583c27.917,-0 23.75,-4.583 32.5,-10.833l3.333,6.25c-8.75,5.416 -18.75,11.25 -36.25,11.25c-29.583,-0 -53.75,-22.917 -53.75,-61.25Zm87.5,-6.667c0,-32.5 -14.583,-48.333 -36.666,-48.333c-22.084,-0 -40.417,18.333 -42.917,48.333l79.583,-0Z" style="fill:#1d1d1b;fill-rule:nonzero;"/><path d="M1818.33,165.926l5,-5.833c10,8.333 20.834,15.417 38.334,15.417c17.5,-0 30,-11.667 30,-25c-0,-13.334 -15.834,-22.5 -29.584,-27.5c-18.333,-6.25 -38.333,-13.334 -38.333,-33.334c0,-20 12.917,-30.416 36.667,-30.416c23.75,-0 24.166,5 32.5,11.666l-4.584,5.834c-7.916,-5.834 -16.25,-10.834 -28.333,-10.834c-19.583,0 -28.333,11.667 -28.333,22.917c-0,11.25 14.166,19.583 28.333,25c18.75,7.083 39.167,12.917 39.167,35.833c-0,22.917 -13.75,32.5 -38.334,32.5c-24.583,0 -32.5,-7.5 -42.916,-16.25l0.416,0Z" style="fill:#1d1d1b;fill-rule:nonzero;"/><path d="M1921.67,120.51c-0,-38.334 24.583,-62.084 50.833,-62.084c26.25,0 44.167,19.167 44.167,54.167c-0,35 -0,5 -0.417,7.917l-86.667,-0c0,31.25 18.334,54.583 46.25,54.583c27.917,-0 23.75,-4.583 32.5,-10.833l3.334,6.25c-8.75,5.416 -18.75,11.25 -36.25,11.25c-29.584,-0 -53.75,-22.917 -53.75,-61.25Zm87.5,-6.667c-0,-32.5 -14.584,-48.333 -36.667,-48.333c-22.083,-0 -40.417,18.333 -42.917,48.333l79.584,-0Z" style="fill:#1d1d1b;fill-rule:nonzero;"/><path d="M2036.67,150.51c-0,-26.25 24.166,-38.75 77.083,-44.584c0.417,-19.166 -4.583,-40.416 -29.167,-40.416c-24.583,-0 -30.833,8.333 -38.333,14.166l-3.75,-5.833c7.5,-5.417 23.75,-15.417 42.917,-15.417c27.5,0 35.833,20.834 35.833,44.167l0,76.25l-6.25,-0l-0.833,-15.833l-0.417,-0c-12.5,10 -27.083,18.75 -42.917,18.75c-15.833,-0 -33.75,-9.167 -33.75,-31.667l-0.416,0.417Zm77.083,4.583l0,-42.917c-51.667,5.834 -69.167,17.5 -69.167,37.917c0,20.417 12.5,25 26.667,25c14.167,-0 27.083,-7.083 42.917,-20l-0.417,-0Z" style="fill:#1d1d1b;fill-rule:nonzero;"/><path d="M2164.17,61.76l7.083,-0l0.833,22.083l0.417,-0c7.917,-14.167 19.167,-25 33.333,-25c14.167,-0 7.5,0.417 11.25,2.5l-2.083,7.083c-3.75,-1.25 -5.833,-2.083 -10.417,-2.083c-10.833,-0 -23.75,8.333 -32.916,31.25l-0,81.667l-7.5,-0l-0,-117.5Z" style="fill:#1d1d1b;fill-rule:nonzero;"/><path d="M2227.5,120.51c0,-39.167 24.583,-62.084 52.5,-62.084c27.917,0 26.667,7.5 34.583,14.584l-5,5.416c-7.916,-7.5 -17.083,-13.333 -29.583,-13.333c-25,-0 -44.583,22.5 -44.583,55c-0,32.5 17.5,54.583 44.583,54.583c27.083,0 24.583,-6.25 32.917,-14.166l4.583,5.416c-10,8.75 -22.083,15.834 -37.5,15.834c-30,-0 -52.5,-22.5 -52.5,-61.25Z" style="fill:#1d1d1b;fill-rule:nonzero;"/><path d="M2347.5,1.76l7.5,-0l0,79.166c12.917,-12.916 25,-22.083 41.25,-22.083c24.167,-0 35.417,14.167 35.417,44.583l-0,75.834l-7.5,-0l-0,-74.584c-0,-25.833 -8.334,-38.75 -28.334,-38.75c-20,0 -25.416,7.917 -40.833,23.75l0,90l-7.5,0l0,-177.916Z" style="fill:#1d1d1b;fill-rule:nonzero;"/><path d="M1633.33,404.26c0,-10.417 7.084,-21.25 17.5,-29.167l0,-0.833c-5.833,-3.334 -10.416,-10 -10.416,-18.75c-0,-8.75 7.916,-18.334 12.916,-21.667l0,-0.833c-7.5,-6.25 -14.583,-18.334 -14.583,-32.5c0,-23.75 17.5,-41.25 40.417,-41.25c22.916,-0 11.666,1.25 15.416,2.916l39.167,0l0,7.084l-28.333,-0c8.333,7.083 14.166,18.333 14.166,31.666c0,23.75 -17.5,41.667 -40.416,41.667c-22.917,-0 -14.584,-2.083 -20,-5.417c-5.417,4.584 -10.417,10 -10.417,18.334c0,8.333 5,16.25 22.917,16.25l25.833,-0c25.833,-0 37.917,8.333 37.917,26.666c-0,18.334 -21.25,39.167 -54.167,39.167c-32.917,-0 -48.333,-13.333 -48.333,-32.917l0.416,-0.416Zm94.167,-5.834c0,-13.75 -10,-19.166 -28.333,-19.166l-27.084,-0c-1.25,-0 -7.916,-0.417 -14.166,-2.084c-11.667,7.917 -16.667,17.5 -16.667,26.667c0,15.833 14.583,26.667 40.833,26.667c26.25,-0 45.834,-16.25 45.834,-32.084l-0.417,0Zm-16.25,-97.916c0,-20.834 -14.583,-34.584 -32.5,-34.584c-17.917,0 -32.5,13.334 -32.5,34.584c0,21.25 15.417,35 32.5,35c17.083,-0 32.5,-14.167 32.5,-35Z" style="fill:#1d1d1b;fill-rule:nonzero;"/><path d="M1761.67,262.176l6.25,0l0.833,22.084l0.417,-0c7.916,-14.167 19.166,-25 33.333,-25c14.167,-0 7.5,0.416 11.25,2.5l-2.083,7.083c-3.75,-1.25 -5.834,-2.083 -10.417,-2.083c-10.833,-0 -23.75,8.333 -32.917,31.666l0,81.667l-7.5,-0l0,-117.5l0.834,-0.417Z" style="fill:#1d1d1b;fill-rule:nonzero;"/><path d="M1823.75,321.343c0,-39.167 24.167,-62.083 52.083,-62.083c27.917,-0 52.084,22.5 52.084,62.083c-0,39.583 -24.167,61.25 -52.084,61.25c-27.916,-0 -52.083,-22.5 -52.083,-61.25Zm96.667,-0c-0,-32.5 -19.167,-55 -44.167,-55c-25,-0 -44.167,22.5 -44.167,55c0,32.5 19.167,54.583 44.167,54.583c25,0 44.167,-22.083 44.167,-54.583Z" style="fill:#1d1d1b;fill-rule:nonzero;"/><path d="M1962.92,338.01l-0,-75.834l7.5,0l-0,74.584c-0,25.833 8.333,38.75 28.333,38.75c20,-0 25.417,-7.917 40.417,-25.417l-0,-87.917l7.5,0l-0,117.5l-6.25,0l-0.834,-20l-0.416,0c-11.667,13.75 -24.167,22.917 -40.417,22.917c-24.167,-0 -35.417,-14.167 -35.417,-44.583l-0.416,-0Z" style="fill:#1d1d1b;fill-rule:nonzero;"/><path d="M2093.33,262.176l6.667,0l0.833,15.417l0.417,-0c11.667,-9.167 25.833,-18.333 40.833,-18.333c32.084,-0 47.084,23.75 47.084,60c-0,36.25 -24.167,63.333 -52.084,63.333c-27.916,-0 -23.75,-5.417 -36.25,-14.583l0,66.25l-7.5,-0l0,-172.084Zm88.334,57.084c-0,-30 -10.834,-52.917 -39.584,-52.917c-28.75,-0 -25.416,7.5 -40.833,20.417l0,72.916c14.167,11.667 27.5,16.25 36.667,16.25c25.416,0 43.75,-23.75 43.75,-56.666Z" style="fill:#1d1d1b;fill-rule:nonzero;"/></g></g></svg>