<?xml version="1.0" encoding="UTF-8"?>
<svg id="Ebene_2" xmlns="http://www.w3.org/2000/svg" version="1.1" viewBox="0 0 475.4 150.6">
  <!-- Generator: Adobe Illustrator 30.2.1, SVG Export Plug-In . SVG Version: 2.1.1 Build 1)  -->
  <defs>
    <style>
      .st0 {
        fill: none;
      }

      .st1 {
        fill: #fff;
      }
    </style>
  </defs>
  <g id="Logos_Schutzraum">
    <g>
      <g>
        <path class="st1" d="M166.8,116.4c-1.8,0-3.3-.3-4.7-.9s-2.5-1.5-3.3-2.6c-.8-1.2-1.2-2.6-1.2-4.2s.4-3.1,1.2-4.2,1.9-1.9,3.3-2.5c1.4-.6,3-.8,4.8-.8h7.5v-1.6c0-1.4-.4-2.6-1.3-3.4s-2.2-1.3-4-1.3-3.1.4-4,1.2c-.9.8-1.5,1.9-1.8,3.2l-4.8-1.5c.4-1.3,1-2.5,1.9-3.6s2.1-1.9,3.5-2.6c1.5-.7,3.2-1,5.3-1,3.2,0,5.7.8,7.5,2.4s2.7,3.9,2.7,6.9v10.1c0,1,.5,1.5,1.4,1.5h2.1v4.3h-3.8c-1.2,0-2.1-.3-2.8-.9s-1.1-1.4-1.1-2.4v-.2h-.8c-.3.5-.7,1.1-1.2,1.7-.5.7-1.3,1.2-2.3,1.7s-2.4.7-4.1.7h0ZM167.6,112.2c2.1,0,3.7-.6,5-1.8s1.9-2.8,1.9-4.8v-.5h-7.2c-1.4,0-2.5.3-3.3.9s-1.2,1.4-1.2,2.6.4,2,1.3,2.7c.9.7,2,1,3.5,1h0Z"/>
        <path class="st1" d="M187.9,115.7v-34.8h5.1v34.8h-5.1Z"/>
        <path class="st1" d="M141.7,116.3c-2.5,0-4.7-.5-6.5-1.6s-3.3-2.5-4.4-4.4-1.6-4.1-1.6-6.7v-.6c0-2.6.5-4.8,1.5-6.7,1-1.9,2.5-3.4,4.3-4.4,1.8-1.1,4-1.6,6.4-1.6s4.4.5,6.2,1.6,3.2,2.5,4.2,4.4,1.5,4,1.5,6.5v1.9h-18.9c0,2.2.8,3.9,2.2,5.2,1.4,1.3,3.1,1.9,5.1,1.9s3.4-.4,4.4-1.3,1.7-1.9,2.3-3l4.2,2.2c-.5.9-1.1,1.9-2,2.9s-2,1.9-3.5,2.6c-1.4.7-3.2,1.1-5.5,1.1h.1ZM134.5,100.8h13.6c-.1-1.9-.8-3.3-2-4.4s-2.8-1.6-4.7-1.6-3.5.5-4.7,1.6-1.9,2.5-2.2,4.4h0Z"/>
        <path class="st1" d="M119.4,88.5c-1.6-1.8-3.7-2.7-5.9-2.7s-4.6.7-7,2.1c-.1-.5-.2-1-.4-1.5-1.8-6.7-5.6-8.5-8.5-8.9-10-1.3-15.5,9.2-19.2,16.1-.7,1.3-1.3,2.5-1.9,3.4-3,5-5.5,8.4-8.9,9.7-3.7,1.4-8.9.6-16.3-2.6-23.5-10.4-39.4-13.1-47-8-3.4,2.3-4.3,5.6-4.3,7.3h4.6s0-2,2.3-3.4c3.6-2.2,13.8-4.2,42.4,8.4,17.3,7.6,23.8,3.2,31.1-9,.6-1.1,1.3-2.3,2-3.7,3.2-6.1,7.6-14.5,14.4-13.6,2.9.4,4.2,3.7,4.8,6.5.2.8.3,1.6.4,2.4-.3.3-.7.6-1,1-3.5,3.6-6.2,8.2-7.3,12.2-1.3,4.8,0,8.7,3.2,10.6.6.3,1.3.5,1.9.5s1.8-.3,2.6-.9c3.5-2.7,5.8-12.8,5.5-21.4,2.1-1.7,4.4-2.7,6.4-2.7s1.8.4,2.5,1.2c1.9,2.1,3.1,6.7,3.5,13.2.3,5.2-.1,9.8-.1,9.8v1.1h4.6v-.7h0c.2-2,1.5-19.9-4.6-26.6h0l.2.2ZM101.8,102.8c-.8,4.5-2,7-2.7,7.8-1.2-1.1-1-3.3-.6-5,.6-2.4,2.1-5.1,3.9-7.5-.1,1.5-.3,3.1-.6,4.6h0Z"/>
        <path class="st1" d="M2.4,69.8v-4.8h4.7v-25.3H2.4v-4.8h13.9c4.7,0,8.2,1.2,10.7,3.5,2.5,2.4,3.7,5.9,3.7,10.7v6.5c0,4.8-1.2,8.3-3.7,10.6s-6,3.5-10.7,3.5H2.4ZM12.5,64.9h3.9c3,0,5.3-.8,6.7-2.3,1.5-1.5,2.2-3.8,2.2-6.8v-6.9c0-3-.7-5.3-2.2-6.8s-3.7-2.2-6.7-2.2h-3.9v25Z"/>
        <path class="st1" d="M39.6,41.9c-1,0-1.8-.3-2.5-1s-1-1.5-1-2.5.3-1.9,1-2.5c.7-.7,1.5-1,2.5-1s1.9.3,2.5,1c.7.7,1,1.5,1,2.5s-.3,1.9-1,2.5c-.7.7-1.5,1-2.5,1ZM37,69.8v-24.5h5.1v24.5h-5.1Z"/>
        <path class="st1" d="M48.5,57.6v-.8c0-2.6.5-4.8,1.6-6.6s2.4-3.2,4.2-4.2c1.7-1,3.6-1.5,5.7-1.5s4.2.5,5.5,1.3c1.3.9,2.2,1.9,2.8,2.9h.8v-3.5h5v29.6c0,1.5-.4,2.7-1.3,3.6s-2.1,1.3-3.6,1.3h-16.5v-4.5h14.9c1,0,1.4-.5,1.4-1.5v-7.8h-.8c-.4.6-.9,1.2-1.5,1.8s-1.5,1.1-2.6,1.5-2.4.6-4.1.6-4-.5-5.7-1.5-3.1-2.4-4.2-4.2c-1-1.8-1.5-4-1.5-6.6h-.1ZM61.3,65.4c2.2,0,4.1-.7,5.5-2.1s2.2-3.4,2.2-5.8v-.5c0-2.5-.7-4.5-2.1-5.9s-3.3-2.1-5.5-2.1-4,.7-5.4,2.1c-1.4,1.4-2.2,3.3-2.2,5.9v.5c0,2.5.7,4.4,2.2,5.8,1.4,1.4,3.3,2.1,5.4,2.1h0Z"/>
        <path class="st1" d="M84.2,41.9c-1,0-1.8-.3-2.5-1s-1-1.5-1-2.5.3-1.9,1-2.5c.7-.7,1.5-1,2.5-1s1.9.3,2.5,1c.7.7,1,1.5,1,2.5s-.3,1.9-1,2.5c-.7.7-1.5,1-2.5,1ZM81.6,69.8v-24.5h5.1v24.5h-5.1Z"/>
        <path class="st1" d="M103.5,69.8c-1.5,0-2.7-.4-3.6-1.3-.9-.9-1.3-2.1-1.3-3.6v-15.3h-6.8v-4.3h6.8v-8.1h5.1v8.1h7.3v4.3h-7.3v14.4c0,1,.5,1.5,1.4,1.5h5.1v4.3h-6.8.1Z"/>
        <path class="st1" d="M124.7,70.5c-1.8,0-3.3-.3-4.7-.9s-2.5-1.5-3.3-2.6c-.8-1.2-1.2-2.6-1.2-4.2s.4-3.1,1.2-4.2c.8-1.1,1.9-2,3.3-2.5,1.4-.6,3-.8,4.8-.8h7.5v-1.6c0-1.4-.4-2.6-1.3-3.4s-2.2-1.3-4-1.3-3.1.4-4,1.2-1.5,1.9-1.8,3.2l-4.8-1.5c.4-1.3,1-2.5,1.9-3.6s2.1-2,3.5-2.6c1.5-.7,3.2-1,5.3-1,3.2,0,5.7.8,7.5,2.4,1.8,1.6,2.7,3.9,2.7,6.9v10.1c0,1,.5,1.5,1.4,1.5h2.1v4.3h-3.8c-1.2,0-2.1-.3-2.8-.9s-1.1-1.4-1.1-2.4v-.2h-.8c-.3.5-.7,1.1-1.2,1.7-.5.7-1.3,1.2-2.3,1.7s-2.4.7-4.1.7h0ZM125.4,66.2c2.1,0,3.7-.6,5-1.8s1.9-2.8,1.9-4.8v-.5h-7.2c-1.4,0-2.5.3-3.3.9-.8.6-1.2,1.4-1.2,2.6s.4,2,1.3,2.7c.9.7,2,1,3.5,1h0Z"/>
        <path class="st1" d="M145.8,69.8v-34.8h5.1v34.8h-5.1Z"/>
        <g>
          <path class="st1" d="M214.2,115.7v-33.1h20v2.7h-16.9v12.4h15.6v2.7h-15.6v12.5h17.1v2.7h-20.2Z"/>
          <path class="st1" d="M251,116.3c-2,0-3.9-.5-5.6-1.4s-3-2.3-4-4.1-1.5-3.9-1.5-6.3v-.6c0-2.4.5-4.5,1.5-6.3s2.3-3.2,4-4.1,3.5-1.4,5.6-1.4,3.1.2,4.3.7c1.2.5,2.1,1,2.9,1.8s1.3,1.5,1.7,2.2h.6v-14.1h2.8v33.1h-2.7v-4.2h-.6c-.7,1.3-1.7,2.4-3.1,3.4s-3.4,1.5-5.9,1.5h0v-.2ZM251.6,113.8c2.6,0,4.7-.8,6.4-2.5s2.4-4,2.4-6.9v-.4c0-2.9-.8-5.2-2.4-6.9-1.6-1.7-3.7-2.5-6.4-2.5s-4.7.8-6.3,2.5-2.5,4-2.5,6.9v.4c0,2.9.8,5.2,2.5,6.9,1.6,1.7,3.8,2.5,6.3,2.5Z"/>
          <path class="st1" d="M281.4,116.2c-1.6,0-3.2-.3-4.6-1s-2.5-1.7-3.4-3.1c-.8-1.4-1.2-3.2-1.2-5.3v-14h2.8v13.8c0,2.5.6,4.3,1.9,5.4s2.9,1.7,5,1.7,4.3-.8,5.9-2.3,2.4-3.9,2.4-7.1v-11.5h2.8v23h-2.7v-4.2h-.6c-.6,1.2-1.5,2.3-2.8,3.3s-3.2,1.4-5.6,1.4h.1Z"/>
          <path class="st1" d="M311.9,116.3c-2.2,0-4.2-.5-6-1.4-1.8-1-3.1-2.3-4.1-4.1-1-1.8-1.5-3.9-1.5-6.3v-.5c0-2.5.5-4.6,1.5-6.3s2.4-3.2,4.1-4.1,3.7-1.4,6-1.4,4.1.4,5.6,1.2,2.7,1.9,3.6,3.3c.9,1.3,1.4,2.8,1.6,4.2l-2.8.6c-.2-1.2-.5-2.3-1.2-3.4-.6-1-1.5-1.8-2.6-2.5-1.1-.6-2.5-.9-4.2-.9s-3.2.4-4.5,1.2c-1.3.8-2.4,1.9-3.1,3.3-.8,1.4-1.2,3.1-1.2,5v.4c0,1.9.4,3.6,1.2,5s1.8,2.5,3.1,3.3c1.3.8,2.8,1.2,4.5,1.2,2.5,0,4.4-.7,5.8-2s2.1-2.9,2.5-4.8l2.8.6c-.3,1.5-.9,2.9-1.8,4.2-.9,1.3-2.1,2.4-3.6,3.3-1.5.8-3.4,1.2-5.6,1.2h0v-.3Z"/>
          <path class="st1" d="M337.9,116.3c-1.6,0-3.1-.3-4.4-.8s-2.3-1.4-3.1-2.4c-.8-1.1-1.1-2.4-1.1-3.9s.4-2.8,1.1-3.8,1.8-1.8,3.1-2.3c1.3-.5,2.7-.8,4.3-.8h8.4v-1.8c0-1.9-.5-3.3-1.6-4.3s-2.6-1.6-4.7-1.6-3.6.5-4.8,1.5c-1.2,1-2,2.3-2.4,4l-2.7-.8c.4-1.3,1-2.6,1.8-3.7s1.9-1.9,3.3-2.6c1.4-.6,3-1,4.9-1,2.9,0,5.1.8,6.7,2.3s2.4,3.6,2.4,6.3v11.1c0,.9.4,1.4,1.3,1.4h2.2v2.5h-3c-1,0-1.8-.3-2.3-.9-.6-.6-.9-1.4-.9-2.4v-.3h-.5c-.4.7-.9,1.4-1.6,2-.6.7-1.5,1.2-2.5,1.6s-2.4.6-3.9.6h0ZM338,113.8c2.4,0,4.4-.7,5.9-2.2s2.2-3.5,2.2-6.2v-.6h-8.4c-1.6,0-3,.3-4.1,1.1s-1.6,1.8-1.6,3.3.6,2.6,1.7,3.4,2.5,1.2,4.3,1.2h0Z"/>
          <path class="st1" d="M365.8,115.7c-1.2,0-2.1-.3-2.8-.9-.6-.6-.9-1.5-.9-2.7v-16.8h-7.4v-2.6h7.4v-8.6h2.8v8.6h8v2.6h-8v16.4c0,.9.5,1.4,1.4,1.4h5.4v2.6h-6,.1Z"/>
          <path class="st1" d="M381.7,88.8c-.7,0-1.3-.2-1.8-.7s-.7-1.1-.7-1.8.2-1.3.7-1.8,1-.7,1.8-.7,1.3.2,1.8.7.7,1.1.7,1.8-.2,1.3-.7,1.8-1,.7-1.8.7ZM380.3,115.7v-22.9h2.8v22.9h-2.8Z"/>
          <path class="st1" d="M402.9,116.3c-2.3,0-4.4-.5-6.1-1.5-1.8-1-3.1-2.4-4.1-4.2s-1.4-3.8-1.4-6.2v-.6c0-2.4.5-4.4,1.4-6.2s2.3-3.2,4.1-4.2c1.8-1,3.8-1.5,6.1-1.5s4.4.5,6.1,1.5,3.1,2.4,4.1,4.2c1,1.8,1.4,3.8,1.4,6.2v.6c0,2.4-.5,4.4-1.4,6.2s-2.3,3.2-4.1,4.2-3.8,1.5-6.1,1.5ZM402.9,113.8c2.7,0,4.9-.9,6.4-2.6,1.6-1.7,2.4-4,2.4-6.8v-.4c0-2.8-.8-5.1-2.4-6.8-1.6-1.7-3.7-2.6-6.4-2.6s-4.8.9-6.4,2.6-2.4,4-2.4,6.8v.4c0,2.8.8,5.1,2.4,6.8,1.6,1.7,3.7,2.6,6.4,2.6Z"/>
          <path class="st1" d="M422.6,115.7v-22.9h2.7v4.2h.6c.6-1.2,1.5-2.3,2.8-3.3s3.2-1.4,5.6-1.4,3.2.3,4.6,1,2.5,1.7,3.3,3.1,1.2,3.2,1.2,5.3v14h-2.8v-13.8c0-2.5-.6-4.3-1.9-5.4s-2.9-1.7-5-1.7-4.3.8-5.9,2.3-2.4,3.9-2.4,7.1v11.5h-2.9,0Z"/>
        </g>
      </g>
      <rect class="st0" y="0" width="475.4" height="150.6"/>
    </g>
  </g>
</svg>
