<?xml version="1.0" encoding="UTF-8"?>
<svg id="Ebene_2" data-name="Ebene 2" xmlns="http://www.w3.org/2000/svg" viewBox="0 0 556.71 150.62">
  <defs>
    <style>
      .cls-1 {
        fill: none;
      }

      .cls-2 {
        fill: #ffffff;
      }
    </style>
  </defs>
  <g id="Logos_Schutzraum" data-name="Logos, Schutzraum">
    <g>
      <g>
        <path class="cls-2" d="M199.34,116.42c-1.76,0-3.33-.3-4.7-.9-1.38-.6-2.47-1.48-3.29-2.64-.81-1.16-1.22-2.57-1.22-4.23s.41-3.09,1.22-4.21c.81-1.11,1.92-1.95,3.34-2.51,1.41-.56,3.01-.85,4.8-.85h7.47v-1.59c0-1.43-.43-2.57-1.29-3.43-.86-.86-2.19-1.29-3.98-1.29s-3.1.42-4.03,1.24c-.93.83-1.54,1.91-1.84,3.24l-4.78-1.54c.4-1.33,1.04-2.53,1.92-3.61.88-1.08,2.05-1.95,3.51-2.61,1.46-.66,3.22-1,5.28-1,3.19,0,5.69.81,7.52,2.44,1.82,1.63,2.74,3.93,2.74,6.92v10.1c0,1,.46,1.49,1.39,1.49h2.09v4.28h-3.83c-1.16,0-2.11-.3-2.84-.9s-1.1-1.41-1.1-2.44v-.15h-.75c-.27.5-.66,1.08-1.2,1.74-.53.66-1.31,1.24-2.34,1.72-1.03.48-2.39.72-4.08.72ZM200.08,112.18c2.06,0,3.72-.59,4.98-1.77,1.26-1.18,1.89-2.8,1.89-4.85v-.5h-7.17c-1.36,0-2.46.29-3.29.87-.83.58-1.24,1.44-1.24,2.56s.43,2.02,1.29,2.69c.86.66,2.04,1,3.53,1Z"/>
        <path class="cls-2" d="M220.44,115.72v-34.85h5.13v34.85h-5.13Z"/>
        <path class="cls-2" d="M174.19,116.31c-2.49,0-4.66-.52-6.52-1.57-1.86-1.05-3.31-2.52-4.36-4.43-1.05-1.91-1.57-4.12-1.57-6.65v-.6c0-2.56.51-4.79,1.54-6.7,1.03-1.91,2.46-3.38,4.31-4.43,1.84-1.05,3.97-1.57,6.4-1.57s4.42.52,6.2,1.57c1.77,1.05,3.16,2.5,4.16,4.36.99,1.86,1.49,4.03,1.49,6.52v1.94h-18.87c.07,2.16.79,3.88,2.17,5.15,1.38,1.28,3.09,1.92,5.15,1.92,1.92,0,3.38-.43,4.36-1.29.98-.86,1.73-1.86,2.27-2.99l4.23,2.19c-.47.93-1.14,1.91-2.01,2.94-.88,1.03-2.03,1.89-3.46,2.59-1.43.7-3.25,1.05-5.48,1.05ZM167.02,100.83h13.59c-.13-1.86-.8-3.31-1.99-4.36-1.19-1.05-2.76-1.57-4.68-1.57s-3.49.52-4.7,1.57c-1.21,1.05-1.95,2.5-2.21,4.36Z"/>
        <path class="cls-2" d="M151.94,88.47c-1.61-1.75-3.66-2.68-5.93-2.68s-4.63.74-7.01,2.14c-.1-.5-.22-.99-.35-1.47-1.83-6.69-5.61-8.54-8.46-8.9-10.04-1.29-15.53,9.17-19.16,16.09-.67,1.28-1.3,2.49-1.87,3.44-2.99,5.02-5.53,8.4-8.92,9.74-3.69,1.45-8.86.61-16.26-2.64-23.54-10.36-39.36-13.05-47.03-7.97-3.44,2.28-4.32,5.64-4.3,7.27l2.35-.03,2.35.02c0-.08.09-2.01,2.33-3.42,3.57-2.25,13.83-4.15,42.42,8.44,17.35,7.64,23.85,3.19,31.11-8.99.63-1.06,1.3-2.32,2-3.66,3.21-6.12,7.6-14.5,14.4-13.62,2.87.37,4.18,3.73,4.78,6.49.17.77.3,1.59.39,2.45-.33.31-.67.64-1,.98-3.51,3.61-6.25,8.19-7.32,12.25-1.28,4.85-.1,8.72,3.23,10.6.61.34,1.26.51,1.91.51.88,0,1.77-.31,2.56-.93,3.52-2.73,5.8-12.76,5.46-21.37,2.14-1.67,4.39-2.73,6.4-2.73.96,0,1.75.37,2.47,1.16,1.89,2.06,3.13,6.74,3.49,13.18.29,5.21-.1,9.78-.1,9.83l-.07,1.07h4.7l.05-.66h0c.17-2.02,1.53-19.9-4.6-26.59ZM134.26,102.76c-.82,4.49-2.03,6.97-2.71,7.83-1.24-1.13-1.01-3.29-.56-5,.63-2.4,2.05-5.06,3.86-7.47-.11,1.54-.31,3.11-.59,4.64Z"/>
        <path class="cls-2" d="M34.94,69.78v-4.78h4.68v-25.29h-4.68v-4.78h13.94c4.65,0,8.2,1.18,10.68,3.53,2.47,2.36,3.71,5.91,3.71,10.65v6.52c0,4.75-1.24,8.29-3.71,10.63-2.47,2.34-6.03,3.51-10.68,3.51h-13.94ZM45.04,64.9h3.88c3.02,0,5.26-.76,6.72-2.29,1.46-1.53,2.19-3.8,2.19-6.82v-6.87c0-3.05-.73-5.33-2.19-6.82-1.46-1.49-3.7-2.24-6.72-2.24h-3.88v25.04Z"/>
        <path class="cls-2" d="M72.07,41.91c-1,0-1.83-.32-2.51-.97-.68-.65-1.02-1.49-1.02-2.51s.34-1.87,1.02-2.51c.68-.65,1.52-.97,2.51-.97s1.87.32,2.54.97c.66.65,1,1.49,1,2.51s-.33,1.87-1,2.51c-.66.65-1.51.97-2.54.97ZM69.48,69.78v-24.54h5.13v24.54h-5.13Z"/>
        <path class="cls-2" d="M81.03,57.64v-.75c0-2.59.52-4.79,1.57-6.62,1.05-1.82,2.43-3.24,4.16-4.23,1.72-1,3.62-1.49,5.67-1.49,2.39,0,4.22.45,5.5,1.34,1.28.9,2.21,1.86,2.81,2.89h.8v-3.53h4.98v29.57c0,1.49-.44,2.69-1.32,3.58s-2.08,1.34-3.61,1.34h-16.53v-4.48h14.93c.96,0,1.44-.5,1.44-1.49v-7.82h-.8c-.37.6-.88,1.21-1.54,1.84-.66.63-1.54,1.14-2.61,1.54-1.08.4-2.43.6-4.06.6-2.06,0-3.96-.49-5.7-1.47-1.74-.98-3.13-2.39-4.16-4.23-1.03-1.84-1.54-4.04-1.54-6.6ZM93.82,65.45c2.22,0,4.06-.7,5.5-2.12,1.44-1.41,2.17-3.36,2.17-5.85v-.45c0-2.55-.71-4.52-2.14-5.9-1.43-1.38-3.27-2.07-5.53-2.07s-4.01.69-5.45,2.07c-1.44,1.38-2.17,3.34-2.17,5.9v.45c0,2.49.72,4.44,2.17,5.85,1.44,1.41,3.26,2.12,5.45,2.12Z"/>
        <path class="cls-2" d="M116.67,41.91c-1,0-1.83-.32-2.51-.97-.68-.65-1.02-1.49-1.02-2.51s.34-1.87,1.02-2.51c.68-.65,1.52-.97,2.51-.97s1.87.32,2.54.97c.66.65,1,1.49,1,2.51s-.33,1.87-1,2.51c-.66.65-1.51.97-2.54.97ZM114.08,69.78v-24.54h5.13v24.54h-5.13Z"/>
        <path class="cls-2" d="M136.04,69.78c-1.49,0-2.68-.45-3.56-1.34-.88-.9-1.32-2.09-1.32-3.58v-15.28h-6.77v-4.33h6.77v-8.11h5.13v8.11h7.32v4.33h-7.32v14.39c0,1,.46,1.49,1.39,1.49h5.13v4.33h-6.77Z"/>
        <path class="cls-2" d="M157.19,70.48c-1.76,0-3.33-.3-4.7-.9-1.38-.6-2.47-1.48-3.29-2.64-.81-1.16-1.22-2.57-1.22-4.23s.41-3.09,1.22-4.21c.81-1.11,1.92-1.95,3.34-2.51,1.41-.56,3.01-.85,4.8-.85h7.47v-1.59c0-1.43-.43-2.57-1.29-3.43-.86-.86-2.19-1.29-3.98-1.29s-3.1.42-4.03,1.24c-.93.83-1.54,1.91-1.84,3.24l-4.78-1.54c.4-1.33,1.04-2.53,1.92-3.61.88-1.08,2.05-1.95,3.51-2.61,1.46-.66,3.22-1,5.28-1,3.19,0,5.69.81,7.52,2.44,1.82,1.63,2.74,3.93,2.74,6.92v10.1c0,1,.46,1.49,1.39,1.49h2.09v4.28h-3.83c-1.16,0-2.11-.3-2.84-.9-.73-.6-1.1-1.41-1.1-2.44v-.15h-.75c-.27.5-.66,1.08-1.19,1.74-.53.66-1.31,1.24-2.34,1.72-1.03.48-2.39.72-4.08.72ZM157.94,66.25c2.06,0,3.72-.59,4.98-1.77,1.26-1.18,1.89-2.8,1.89-4.85v-.5h-7.17c-1.36,0-2.46.29-3.29.87-.83.58-1.24,1.44-1.24,2.56s.43,2.02,1.29,2.69c.86.66,2.04,1,3.53,1Z"/>
        <path class="cls-2" d="M178.3,69.78v-34.85h5.13v34.85h-5.13Z"/>
      </g>
      <g>
        <path class="cls-2" d="M246.69,115.65v-33.07h12.24c1.95,0,3.71.37,5.27,1.11,1.56.74,2.79,1.8,3.71,3.19.91,1.39,1.37,3.07,1.37,5.05v.57c0,1.98-.47,3.68-1.39,5.08-.93,1.4-2.17,2.46-3.73,3.19-1.56.72-3.3,1.09-5.22,1.09h-9.21v13.8h-3.02ZM249.71,99.12h8.88c2.36,0,4.23-.58,5.6-1.75,1.37-1.17,2.06-2.8,2.06-4.91v-.47c0-2.14-.67-3.79-2.01-4.94-1.34-1.15-3.22-1.72-5.65-1.72h-8.88v13.8Z"/>
        <path class="cls-2" d="M281.6,116.31c-1.61,0-3.06-.28-4.37-.83-1.31-.55-2.34-1.36-3.09-2.43-.76-1.07-1.13-2.36-1.13-3.87s.38-2.82,1.13-3.83c.76-1.01,1.78-1.76,3.07-2.27,1.29-.5,2.72-.76,4.3-.76h8.41v-1.84c0-1.86-.54-3.31-1.61-4.35-1.07-1.04-2.63-1.56-4.68-1.56s-3.61.5-4.8,1.49c-1.18.99-1.98,2.32-2.39,3.99l-2.74-.8c.38-1.35.98-2.58,1.8-3.66.82-1.09,1.91-1.95,3.26-2.6,1.35-.64,2.98-.97,4.87-.97,2.9,0,5.14.76,6.73,2.27,1.59,1.51,2.39,3.62,2.39,6.33v11.15c0,.95.44,1.42,1.32,1.42h2.22v2.46h-3.02c-.98,0-1.75-.29-2.32-.87-.57-.58-.85-1.38-.85-2.39v-.33h-.47c-.41.69-.94,1.37-1.58,2.03-.65.66-1.49,1.2-2.53,1.61-1.04.41-2.35.61-3.92.61ZM281.79,113.76c2.43,0,4.39-.73,5.88-2.2,1.5-1.46,2.24-3.53,2.24-6.21v-.57h-8.36c-1.64,0-3,.35-4.09,1.06s-1.63,1.8-1.63,3.28.56,2.62,1.68,3.43c1.12.8,2.54,1.2,4.27,1.2Z"/>
        <path class="cls-2" d="M301.68,115.65v-22.96h2.74v4.25h.57c.57-1.23,1.5-2.32,2.79-3.28s3.17-1.44,5.62-1.44c1.67,0,3.2.35,4.58,1.04,1.39.69,2.5,1.74,3.33,3.14.83,1.4,1.25,3.16,1.25,5.27v13.98h-2.83v-13.8c0-2.52-.63-4.33-1.89-5.43-1.26-1.1-2.95-1.65-5.05-1.65-2.36,0-4.33.78-5.91,2.34-1.58,1.56-2.36,3.91-2.36,7.06v11.48h-2.83Z"/>
        <path class="cls-2" d="M341.18,116.31c-2.36,0-4.42-.5-6.17-1.49-1.75-.99-3.11-2.39-4.09-4.18-.98-1.8-1.46-3.86-1.46-6.19v-.57c0-2.36.49-4.43,1.46-6.21.98-1.78,2.32-3.16,4.04-4.16,1.72-.99,3.68-1.49,5.88-1.49s4.04.45,5.69,1.35c1.65.9,2.95,2.19,3.9,3.87.94,1.69,1.42,3.69,1.42,6.02v1.51h-19.56c.09,2.87.97,5.08,2.62,6.64,1.65,1.56,3.74,2.34,6.26,2.34,2.14,0,3.8-.49,4.98-1.46,1.18-.98,2.09-2.17,2.72-3.59l2.55,1.13c-.47,1.04-1.13,2.06-1.96,3.05-.84.99-1.91,1.81-3.24,2.46-1.32.64-3.01.97-5.05.97ZM332.34,102.33h16.63c-.13-2.49-.93-4.4-2.41-5.74-1.48-1.34-3.39-2.01-5.72-2.01s-4.2.67-5.72,2.01c-1.51,1.34-2.44,3.25-2.79,5.74Z"/>
        <path class="cls-2" d="M358.85,115.65v-33.07h2.83v33.07h-2.83Z"/>
        <path class="cls-2" d="M392.86,116.31c-2.36,0-4.47-.42-6.33-1.25-1.86-.83-3.32-2.11-4.39-3.83-1.07-1.72-1.61-3.9-1.61-6.54v-.9h3.02v.9c0,3.06.87,5.31,2.62,6.78,1.75,1.46,3.98,2.2,6.69,2.2s4.85-.64,6.33-1.91c1.48-1.28,2.22-2.91,2.22-4.89,0-1.32-.32-2.39-.97-3.19-.65-.8-1.54-1.45-2.69-1.94-1.15-.49-2.48-.92-3.99-1.3l-3.02-.76c-1.8-.47-3.4-1.06-4.82-1.77s-2.54-1.64-3.35-2.79c-.82-1.15-1.23-2.62-1.23-4.42s.46-3.36,1.39-4.68c.93-1.32,2.21-2.34,3.85-3.05,1.64-.71,3.54-1.06,5.72-1.06s4.13.38,5.88,1.13,3.13,1.87,4.16,3.33c1.02,1.46,1.54,3.3,1.54,5.5v2.22h-3.02v-2.22c0-1.73-.38-3.13-1.13-4.2-.76-1.07-1.78-1.86-3.07-2.36-1.29-.5-2.74-.76-4.35-.76-2.3,0-4.2.53-5.69,1.58-1.5,1.06-2.24,2.58-2.24,4.56,0,1.32.31,2.38.92,3.16.61.79,1.48,1.42,2.6,1.89,1.12.47,2.43.9,3.94,1.28l3.02.76c1.73.41,3.32.95,4.77,1.63,1.45.68,2.61,1.61,3.5,2.79.88,1.18,1.32,2.73,1.32,4.65s-.48,3.59-1.44,5.01c-.96,1.42-2.31,2.51-4.04,3.28-1.73.77-3.76,1.16-6.09,1.16Z"/>
        <path class="cls-2" d="M419.55,115.65c-1.23,0-2.15-.31-2.76-.94-.61-.63-.92-1.51-.92-2.65v-16.82h-7.37v-2.55h7.37v-8.6h2.83v8.6h8.03v2.55h-8.03v16.44c0,.94.47,1.42,1.42,1.42h5.39v2.55h-5.95Z"/>
        <path class="cls-2" d="M441.9,116.12c-1.64,0-3.16-.35-4.56-1.04-1.4-.69-2.52-1.74-3.35-3.14-.84-1.4-1.25-3.16-1.25-5.27v-13.98h2.83v13.8c0,2.49.63,4.29,1.89,5.41,1.26,1.12,2.95,1.68,5.06,1.68,2.36,0,4.33-.78,5.91-2.34,1.57-1.56,2.36-3.91,2.36-7.06v-11.48h2.83v22.96h-2.74v-4.25h-.57c-.57,1.23-1.5,2.32-2.79,3.28-1.29.96-3.16,1.44-5.62,1.44Z"/>
        <path class="cls-2" d="M471.85,116.31c-2.05,0-3.91-.48-5.57-1.44-1.67-.96-3-2.33-3.99-4.11s-1.49-3.88-1.49-6.31v-.57c0-2.42.49-4.53,1.46-6.31.98-1.78,2.31-3.15,3.99-4.11,1.68-.96,3.55-1.44,5.6-1.44,1.7,0,3.13.23,4.3.68,1.16.46,2.12,1.04,2.86,1.75.74.71,1.31,1.46,1.72,2.24h.57v-14.13h2.83v33.07h-2.74v-4.2h-.57c-.66,1.26-1.69,2.39-3.09,3.38-1.4.99-3.36,1.49-5.88,1.49ZM472.52,113.76c2.61,0,4.73-.83,6.35-2.5,1.62-1.67,2.43-3.97,2.43-6.9v-.38c0-2.93-.81-5.23-2.43-6.9-1.62-1.67-3.74-2.5-6.35-2.5s-4.69.84-6.33,2.5c-1.64,1.67-2.46,3.97-2.46,6.9v.38c0,2.93.82,5.23,2.46,6.9,1.64,1.67,3.75,2.5,6.33,2.5Z"/>
        <path class="cls-2" d="M493.87,88.72c-.69,0-1.28-.24-1.75-.71-.47-.47-.71-1.05-.71-1.75s.24-1.31.71-1.77c.47-.46,1.05-.68,1.75-.68s1.31.23,1.77.68.68,1.05.68,1.77-.23,1.28-.68,1.75c-.46.47-1.05.71-1.77.71ZM492.45,115.65v-22.96h2.83v22.96h-2.83Z"/>
        <path class="cls-2" d="M514.18,116.31c-2.36,0-4.42-.5-6.17-1.49-1.75-.99-3.11-2.39-4.09-4.18-.98-1.8-1.46-3.86-1.46-6.19v-.57c0-2.36.49-4.43,1.46-6.21.98-1.78,2.32-3.16,4.04-4.16,1.72-.99,3.68-1.49,5.88-1.49s4.04.45,5.69,1.35c1.65.9,2.95,2.19,3.9,3.87.94,1.69,1.42,3.69,1.42,6.02v1.51h-19.56c.09,2.87.97,5.08,2.62,6.64,1.65,1.56,3.74,2.34,6.26,2.34,2.14,0,3.8-.49,4.98-1.46,1.18-.98,2.09-2.17,2.72-3.59l2.55,1.13c-.47,1.04-1.13,2.06-1.96,3.05-.84.99-1.91,1.81-3.24,2.46-1.32.64-3.01.97-5.05.97ZM505.35,102.33h16.63c-.13-2.49-.93-4.4-2.41-5.74-1.48-1.34-3.39-2.01-5.72-2.01s-4.2.67-5.72,2.01c-1.51,1.34-2.44,3.25-2.79,5.74Z"/>
      </g>
      <rect class="cls-1" width="556.71" height="150.62"/>
    </g>
  </g>
</svg>
