<?xml version="1.0" encoding="UTF-8"?>
<svg id="Ebene_2" data-name="Ebene 2" xmlns="http://www.w3.org/2000/svg" viewBox="0 0 507.94 150.62">
  <defs>
    <style>
      .cls-1 {
        fill: none;
      }

      .cls-2 {
        fill: #ffffff;
      }
    </style>
  </defs>
  <g id="Logos_Schutzraum" data-name="Logos, Schutzraum">
    <g>
      <g>
        <path class="cls-2" d="M199.34,116.42c-1.76,0-3.33-.3-4.7-.9-1.38-.6-2.47-1.48-3.29-2.64-.81-1.16-1.22-2.57-1.22-4.23s.41-3.09,1.22-4.21c.81-1.11,1.92-1.95,3.34-2.51,1.41-.56,3.01-.85,4.8-.85h7.47v-1.59c0-1.43-.43-2.57-1.29-3.43-.86-.86-2.19-1.29-3.98-1.29s-3.1.42-4.03,1.24c-.93.83-1.54,1.91-1.84,3.24l-4.78-1.54c.4-1.33,1.04-2.53,1.92-3.61.88-1.08,2.05-1.95,3.51-2.61,1.46-.66,3.22-1,5.28-1,3.19,0,5.69.81,7.52,2.44,1.82,1.63,2.74,3.93,2.74,6.92v10.1c0,1,.46,1.49,1.39,1.49h2.09v4.28h-3.83c-1.16,0-2.11-.3-2.84-.9s-1.1-1.41-1.1-2.44v-.15h-.75c-.27.5-.66,1.08-1.2,1.74-.53.66-1.31,1.24-2.34,1.72-1.03.48-2.39.72-4.08.72ZM200.08,112.18c2.06,0,3.72-.59,4.98-1.77,1.26-1.18,1.89-2.8,1.89-4.85v-.5h-7.17c-1.36,0-2.46.29-3.29.87-.83.58-1.24,1.44-1.24,2.56s.43,2.02,1.29,2.69c.86.66,2.04,1,3.53,1Z"/>
        <path class="cls-2" d="M220.44,115.72v-34.85h5.13v34.85h-5.13Z"/>
        <path class="cls-2" d="M174.19,116.31c-2.49,0-4.66-.52-6.52-1.57-1.86-1.05-3.31-2.52-4.36-4.43-1.05-1.91-1.57-4.12-1.57-6.65v-.6c0-2.56.51-4.79,1.54-6.7,1.03-1.91,2.46-3.38,4.31-4.43,1.84-1.05,3.97-1.57,6.4-1.57s4.42.52,6.2,1.57c1.77,1.05,3.16,2.5,4.16,4.36.99,1.86,1.49,4.03,1.49,6.52v1.94h-18.87c.07,2.16.79,3.88,2.17,5.15,1.38,1.28,3.09,1.92,5.15,1.92,1.92,0,3.38-.43,4.36-1.29.98-.86,1.73-1.86,2.27-2.99l4.23,2.19c-.47.93-1.14,1.91-2.01,2.94-.88,1.03-2.03,1.89-3.46,2.59-1.43.7-3.25,1.05-5.48,1.05ZM167.02,100.83h13.59c-.13-1.86-.8-3.31-1.99-4.36-1.19-1.05-2.76-1.57-4.68-1.57s-3.49.52-4.7,1.57c-1.21,1.05-1.95,2.5-2.21,4.36Z"/>
        <path class="cls-2" d="M151.94,88.47c-1.61-1.75-3.66-2.68-5.93-2.68s-4.63.74-7.01,2.14c-.1-.5-.22-.99-.35-1.47-1.83-6.69-5.61-8.54-8.46-8.9-10.04-1.29-15.53,9.17-19.16,16.09-.67,1.28-1.3,2.49-1.87,3.44-2.99,5.02-5.53,8.4-8.92,9.74-3.69,1.45-8.86.61-16.26-2.64-23.54-10.36-39.36-13.05-47.03-7.97-3.44,2.28-4.32,5.64-4.3,7.27l2.35-.03,2.35.02c0-.08.09-2.01,2.33-3.42,3.57-2.25,13.83-4.15,42.42,8.44,17.35,7.64,23.85,3.19,31.11-8.99.63-1.06,1.3-2.32,2-3.66,3.21-6.12,7.6-14.5,14.4-13.62,2.87.37,4.18,3.73,4.78,6.49.17.77.3,1.59.39,2.45-.33.31-.67.64-1,.98-3.51,3.61-6.25,8.19-7.32,12.25-1.28,4.85-.1,8.72,3.23,10.6.61.34,1.26.51,1.91.51.88,0,1.77-.31,2.56-.93,3.52-2.73,5.8-12.76,5.46-21.37,2.14-1.67,4.39-2.73,6.4-2.73.96,0,1.75.37,2.47,1.16,1.89,2.06,3.13,6.74,3.49,13.18.29,5.21-.1,9.78-.1,9.83l-.07,1.07h4.7l.05-.66h0c.17-2.02,1.53-19.9-4.6-26.59ZM134.26,102.76c-.82,4.49-2.03,6.97-2.71,7.83-1.24-1.13-1.01-3.29-.56-5,.63-2.4,2.05-5.06,3.86-7.47-.11,1.54-.31,3.11-.59,4.64Z"/>
        <path class="cls-2" d="M34.94,69.78v-4.78h4.68v-25.29h-4.68v-4.78h13.94c4.65,0,8.2,1.18,10.68,3.53,2.47,2.36,3.71,5.91,3.71,10.65v6.52c0,4.75-1.24,8.29-3.71,10.63-2.47,2.34-6.03,3.51-10.68,3.51h-13.94ZM45.04,64.9h3.88c3.02,0,5.26-.76,6.72-2.29,1.46-1.53,2.19-3.8,2.19-6.82v-6.87c0-3.05-.73-5.33-2.19-6.82-1.46-1.49-3.7-2.24-6.72-2.24h-3.88v25.04Z"/>
        <path class="cls-2" d="M72.07,41.91c-1,0-1.83-.32-2.51-.97-.68-.65-1.02-1.49-1.02-2.51s.34-1.87,1.02-2.51c.68-.65,1.52-.97,2.51-.97s1.87.32,2.54.97c.66.65,1,1.49,1,2.51s-.33,1.87-1,2.51c-.66.65-1.51.97-2.54.97ZM69.48,69.78v-24.54h5.13v24.54h-5.13Z"/>
        <path class="cls-2" d="M81.03,57.64v-.75c0-2.59.52-4.79,1.57-6.62,1.05-1.82,2.43-3.24,4.16-4.23,1.72-1,3.62-1.49,5.67-1.49,2.39,0,4.22.45,5.5,1.34,1.28.9,2.21,1.86,2.81,2.89h.8v-3.53h4.98v29.57c0,1.49-.44,2.69-1.32,3.58s-2.08,1.34-3.61,1.34h-16.53v-4.48h14.93c.96,0,1.44-.5,1.44-1.49v-7.82h-.8c-.37.6-.88,1.21-1.54,1.84-.66.63-1.54,1.14-2.61,1.54-1.08.4-2.43.6-4.06.6-2.06,0-3.96-.49-5.7-1.47-1.74-.98-3.13-2.39-4.16-4.23-1.03-1.84-1.54-4.04-1.54-6.6ZM93.82,65.45c2.22,0,4.06-.7,5.5-2.12,1.44-1.41,2.17-3.36,2.17-5.85v-.45c0-2.55-.71-4.52-2.14-5.9-1.43-1.38-3.27-2.07-5.53-2.07s-4.01.69-5.45,2.07c-1.44,1.38-2.17,3.34-2.17,5.9v.45c0,2.49.72,4.44,2.17,5.85,1.44,1.41,3.26,2.12,5.45,2.12Z"/>
        <path class="cls-2" d="M116.67,41.91c-1,0-1.83-.32-2.51-.97-.68-.65-1.02-1.49-1.02-2.51s.34-1.87,1.02-2.51c.68-.65,1.52-.97,2.51-.97s1.87.32,2.54.97c.66.65,1,1.49,1,2.51s-.33,1.87-1,2.51c-.66.65-1.51.97-2.54.97ZM114.08,69.78v-24.54h5.13v24.54h-5.13Z"/>
        <path class="cls-2" d="M136.04,69.78c-1.49,0-2.68-.45-3.56-1.34-.88-.9-1.32-2.09-1.32-3.58v-15.28h-6.77v-4.33h6.77v-8.11h5.13v8.11h7.32v4.33h-7.32v14.39c0,1,.46,1.49,1.39,1.49h5.13v4.33h-6.77Z"/>
        <path class="cls-2" d="M157.19,70.48c-1.76,0-3.33-.3-4.7-.9-1.38-.6-2.47-1.48-3.29-2.64-.81-1.16-1.22-2.57-1.22-4.23s.41-3.09,1.22-4.21c.81-1.11,1.92-1.95,3.34-2.51,1.41-.56,3.01-.85,4.8-.85h7.47v-1.59c0-1.43-.43-2.57-1.29-3.43-.86-.86-2.19-1.29-3.98-1.29s-3.1.42-4.03,1.24c-.93.83-1.54,1.91-1.84,3.24l-4.78-1.54c.4-1.33,1.04-2.53,1.92-3.61.88-1.08,2.05-1.95,3.51-2.61,1.46-.66,3.22-1,5.28-1,3.19,0,5.69.81,7.52,2.44,1.82,1.63,2.74,3.93,2.74,6.92v10.1c0,1,.46,1.49,1.39,1.49h2.09v4.28h-3.83c-1.16,0-2.11-.3-2.84-.9-.73-.6-1.1-1.41-1.1-2.44v-.15h-.75c-.27.5-.66,1.08-1.19,1.74-.53.66-1.31,1.24-2.34,1.72-1.03.48-2.39.72-4.08.72ZM157.94,66.25c2.06,0,3.72-.59,4.98-1.77,1.26-1.18,1.89-2.8,1.89-4.85v-.5h-7.17c-1.36,0-2.46.29-3.29.87-.83.58-1.24,1.44-1.24,2.56s.43,2.02,1.29,2.69c.86.66,2.04,1,3.53,1Z"/>
        <path class="cls-2" d="M178.3,69.78v-34.85h5.13v34.85h-5.13Z"/>
        <g>
          <path class="cls-2" d="M246.67,115.67v-33.06h19.98v2.74h-16.95v12.37h15.63v2.74h-15.63v12.47h17.14v2.74h-20.16Z"/>
          <path class="cls-2" d="M283.45,116.34c-2.05,0-3.9-.48-5.57-1.44-1.67-.96-3-2.33-3.99-4.11s-1.49-3.88-1.49-6.3v-.57c0-2.42.49-4.53,1.46-6.3.98-1.78,2.31-3.15,3.99-4.11,1.68-.96,3.55-1.44,5.6-1.44,1.7,0,3.13.23,4.3.68,1.16.46,2.12,1.04,2.86,1.75.74.71,1.31,1.46,1.72,2.24h.57v-14.12h2.83v33.06h-2.74v-4.2h-.57c-.66,1.26-1.69,2.38-3.09,3.38-1.4.99-3.36,1.49-5.88,1.49ZM284.11,113.79c2.61,0,4.73-.83,6.35-2.5,1.62-1.67,2.43-3.97,2.43-6.89v-.38c0-2.93-.81-5.23-2.43-6.89-1.62-1.67-3.74-2.5-6.35-2.5s-4.69.83-6.33,2.5-2.46,3.97-2.46,6.89v.38c0,2.93.82,5.23,2.46,6.89,1.64,1.67,3.75,2.5,6.33,2.5Z"/>
          <path class="cls-2" d="M313.85,116.15c-1.64,0-3.16-.35-4.56-1.04-1.4-.69-2.52-1.74-3.35-3.14-.83-1.4-1.25-3.16-1.25-5.26v-13.98h2.83v13.79c0,2.49.63,4.29,1.89,5.41,1.26,1.12,2.94,1.68,5.05,1.68,2.36,0,4.33-.78,5.9-2.34,1.57-1.56,2.36-3.91,2.36-7.06v-11.47h2.83v22.95h-2.74v-4.25h-.57c-.57,1.23-1.5,2.32-2.79,3.28-1.29.96-3.16,1.44-5.62,1.44Z"/>
          <path class="cls-2" d="M344.35,116.34c-2.24,0-4.23-.48-5.97-1.44-1.75-.96-3.13-2.34-4.13-4.13-1.01-1.79-1.51-3.9-1.51-6.33v-.47c0-2.46.5-4.57,1.51-6.35,1.01-1.78,2.38-3.15,4.13-4.11,1.75-.96,3.74-1.44,5.97-1.44s4.07.42,5.6,1.25c1.53.83,2.72,1.92,3.59,3.26.87,1.34,1.41,2.75,1.63,4.23l-2.79.57c-.16-1.23-.55-2.35-1.18-3.38-.63-1.02-1.51-1.84-2.65-2.46-1.13-.61-2.53-.92-4.2-.92s-3.16.39-4.49,1.16c-1.32.77-2.37,1.86-3.14,3.26-.77,1.4-1.16,3.06-1.16,4.98v.38c0,1.92.39,3.58,1.16,4.98.77,1.4,1.82,2.49,3.14,3.26,1.32.77,2.82,1.16,4.49,1.16,2.52,0,4.44-.65,5.76-1.96,1.32-1.31,2.14-2.9,2.46-4.79l2.79.57c-.28,1.48-.87,2.89-1.77,4.23-.9,1.34-2.11,2.42-3.64,3.26-1.53.83-3.39,1.25-5.6,1.25Z"/>
          <path class="cls-2" d="M370.35,116.34c-1.61,0-3.06-.28-4.37-.83-1.31-.55-2.34-1.36-3.09-2.43-.76-1.07-1.13-2.36-1.13-3.87s.38-2.82,1.13-3.83c.75-1.01,1.78-1.76,3.07-2.27,1.29-.5,2.72-.76,4.3-.76h8.41v-1.84c0-1.86-.54-3.31-1.61-4.34-1.07-1.04-2.63-1.56-4.68-1.56s-3.61.5-4.79,1.49c-1.18.99-1.98,2.32-2.38,3.99l-2.74-.8c.38-1.35.97-2.57,1.79-3.66.82-1.09,1.9-1.95,3.26-2.6,1.35-.64,2.98-.97,4.86-.97,2.9,0,5.14.76,6.73,2.27,1.59,1.51,2.38,3.62,2.38,6.33v11.14c0,.95.44,1.42,1.32,1.42h2.22v2.46h-3.02c-.98,0-1.75-.29-2.31-.87-.57-.58-.85-1.38-.85-2.38v-.33h-.47c-.41.69-.94,1.37-1.58,2.03-.65.66-1.49,1.2-2.53,1.61s-2.35.61-3.92.61ZM370.54,113.79c2.42,0,4.38-.73,5.88-2.2,1.49-1.46,2.24-3.53,2.24-6.21v-.57h-8.36c-1.64,0-3,.35-4.08,1.06s-1.63,1.8-1.63,3.28.56,2.62,1.68,3.42c1.12.8,2.54,1.2,4.27,1.2Z"/>
          <path class="cls-2" d="M398.29,115.67c-1.23,0-2.15-.31-2.76-.94-.61-.63-.92-1.51-.92-2.65v-16.81h-7.37v-2.55h7.37v-8.59h2.83v8.59h8.03v2.55h-8.03v16.43c0,.94.47,1.42,1.42,1.42h5.38v2.55h-5.95Z"/>
          <path class="cls-2" d="M414.19,88.76c-.69,0-1.28-.24-1.75-.71-.47-.47-.71-1.05-.71-1.75s.24-1.31.71-1.77,1.05-.68,1.75-.68,1.31.23,1.77.68.68,1.05.68,1.77-.23,1.28-.68,1.75c-.46.47-1.05.71-1.77.71ZM412.77,115.67v-22.95h2.83v22.95h-2.83Z"/>
          <path class="cls-2" d="M435.37,116.34c-2.33,0-4.37-.5-6.11-1.49-1.75-.99-3.1-2.38-4.06-4.16-.96-1.78-1.44-3.85-1.44-6.21v-.57c0-2.36.48-4.43,1.44-6.21.96-1.78,2.31-3.16,4.06-4.16,1.75-.99,3.79-1.49,6.11-1.49s4.37.5,6.12,1.49c1.75.99,3.1,2.38,4.06,4.16.96,1.78,1.44,3.85,1.44,6.21v.57c0,2.36-.48,4.43-1.44,6.21-.96,1.78-2.31,3.16-4.06,4.16s-3.79,1.49-6.12,1.49ZM435.37,113.79c2.71,0,4.85-.86,6.42-2.57,1.57-1.72,2.36-3.99,2.36-6.82v-.38c0-2.83-.79-5.11-2.36-6.82-1.57-1.72-3.72-2.57-6.42-2.57s-4.81.86-6.4,2.57c-1.59,1.72-2.38,3.99-2.38,6.82v.38c0,2.83.79,5.11,2.38,6.82,1.59,1.72,3.72,2.57,6.4,2.57Z"/>
          <path class="cls-2" d="M455.14,115.67v-22.95h2.74v4.25h.57c.57-1.23,1.49-2.32,2.79-3.28s3.16-1.44,5.62-1.44c1.67,0,3.19.35,4.58,1.04s2.49,1.74,3.33,3.14c.83,1.4,1.25,3.16,1.25,5.27v13.98h-2.83v-13.79c0-2.52-.63-4.33-1.89-5.43-1.26-1.1-2.94-1.65-5.05-1.65-2.36,0-4.33.78-5.9,2.34-1.57,1.56-2.36,3.91-2.36,7.06v11.48h-2.83Z"/>
        </g>
      </g>
      <rect class="cls-1" width="507.94" height="150.62"/>
    </g>
  </g>
</svg>
