<?xml version="1.0" encoding="UTF-8"?><svg xmlns="http://www.w3.org/2000/svg" viewBox="0 0 260.48 150.56"><defs><style>.c{fill:none;}.d{fill:#1e1e1c;}</style></defs><g id="a"><path class="d" d="M199.36,116.39c-1.76,0-3.33-.3-4.71-.9-1.38-.6-2.47-1.48-3.29-2.64-.81-1.16-1.22-2.57-1.22-4.23s.41-3.1,1.22-4.21c.81-1.11,1.92-1.95,3.34-2.52,1.41-.56,3.01-.85,4.81-.85h7.47v-1.59c0-1.43-.43-2.57-1.3-3.44-.86-.86-2.19-1.3-3.98-1.3s-3.11.42-4.03,1.25c-.93.83-1.54,1.91-1.84,3.24l-4.78-1.54c.4-1.33,1.04-2.53,1.92-3.61.88-1.08,2.05-1.95,3.51-2.62,1.46-.66,3.22-1,5.28-1,3.19,0,5.69.81,7.52,2.44,1.83,1.63,2.74,3.93,2.74,6.92v10.11c0,1,.46,1.49,1.39,1.49h2.09v4.28h-3.83c-1.16,0-2.11-.3-2.84-.9s-1.1-1.41-1.1-2.44v-.15h-.75c-.27.5-.66,1.08-1.2,1.74-.53.66-1.31,1.24-2.34,1.72s-2.39.72-4.08.72ZM200.11,112.16c2.06,0,3.72-.59,4.98-1.77,1.26-1.18,1.89-2.8,1.89-4.86v-.5h-7.17c-1.36,0-2.46.29-3.29.87-.83.58-1.25,1.44-1.25,2.57s.43,2.03,1.29,2.69c.86.66,2.04,1,3.54,1Z"/><path class="d" d="M220.48,115.7v-34.87h5.13v34.87h-5.13Z"/><path class="d" d="M174.2,116.28c-2.49,0-4.67-.52-6.52-1.57-1.86-1.05-3.31-2.52-4.36-4.43-1.05-1.91-1.57-4.13-1.57-6.65v-.6c0-2.56.51-4.79,1.54-6.7,1.03-1.91,2.47-3.39,4.31-4.43,1.84-1.05,3.98-1.57,6.4-1.57s4.42.52,6.2,1.57c1.77,1.05,3.16,2.5,4.16,4.36,1,1.86,1.49,4.03,1.49,6.52v1.94h-18.88c.07,2.16.79,3.88,2.17,5.15,1.38,1.28,3.1,1.92,5.15,1.92,1.93,0,3.38-.43,4.36-1.29.98-.86,1.74-1.86,2.27-2.99l4.23,2.19c-.47.93-1.14,1.91-2.02,2.94-.88,1.03-2.03,1.89-3.46,2.59-1.43.7-3.25,1.05-5.48,1.05ZM167.03,100.79h13.6c-.13-1.86-.8-3.31-1.99-4.36-1.2-1.05-2.76-1.57-4.68-1.57s-3.49.52-4.71,1.57-1.95,2.5-2.22,4.36Z"/><path class="d" d="M151.94,88.43c-1.61-1.75-3.66-2.68-5.94-2.68s-4.63.74-7.01,2.14c-.1-.5-.22-1-.35-1.47-1.83-6.7-5.61-8.54-8.47-8.91-10.04-1.29-15.54,9.17-19.17,16.1-.67,1.28-1.3,2.49-1.87,3.44-2.99,5.02-5.53,8.4-8.93,9.74-3.7,1.45-8.87.61-16.27-2.64-23.55-10.37-39.39-13.06-47.06-7.98-3.44,2.28-4.33,5.64-4.3,7.27l2.35-.03,2.35.02c0-.08.09-2.01,2.33-3.42,3.57-2.25,13.84-4.15,42.44,8.44,17.36,7.64,23.87,3.19,31.13-8.99.63-1.06,1.3-2.33,2-3.66,3.21-6.12,7.61-14.5,14.41-13.62,2.88.37,4.19,3.74,4.78,6.49.17.77.3,1.59.39,2.45-.33.31-.67.64-1,.98-3.51,3.61-6.25,8.19-7.32,12.26-1.28,4.85-.1,8.72,3.23,10.61.61.34,1.26.51,1.91.51.88,0,1.77-.31,2.56-.93,3.52-2.73,5.8-12.77,5.46-21.38,2.15-1.67,4.4-2.73,6.41-2.73.96,0,1.75.37,2.47,1.16,1.89,2.06,3.13,6.75,3.49,13.19.29,5.22-.1,9.78-.1,9.83l-.07,1.07h4.7l.05-.66h0c.18-2.02,1.53-19.91-4.61-26.6ZM134.25,102.73c-.82,4.49-2.03,6.98-2.71,7.83-1.24-1.13-1.01-3.3-.56-5,.63-2.41,2.05-5.07,3.87-7.48-.11,1.55-.31,3.11-.59,4.65Z"/><path class="d" d="M34.87,69.73v-4.78h4.68v-25.3h-4.68v-4.78h13.95c4.65,0,8.21,1.18,10.68,3.54,2.47,2.36,3.71,5.91,3.71,10.66v6.52c0,4.75-1.24,8.29-3.71,10.63-2.47,2.34-6.04,3.51-10.68,3.51h-13.95ZM44.98,64.85h3.89c3.02,0,5.26-.76,6.72-2.29,1.46-1.53,2.19-3.8,2.19-6.82v-6.87c0-3.05-.73-5.33-2.19-6.82-1.46-1.49-3.7-2.24-6.72-2.24h-3.89v25.05Z"/><path class="d" d="M72.02,41.84c-1,0-1.84-.32-2.52-.97-.68-.65-1.02-1.49-1.02-2.52s.34-1.87,1.02-2.52c.68-.65,1.52-.97,2.52-.97s1.88.32,2.54.97c.66.65,1,1.49,1,2.52s-.33,1.87-1,2.52c-.66.65-1.51.97-2.54.97ZM69.43,69.73v-24.56h5.13v24.56h-5.13Z"/><path class="d" d="M80.99,57.58v-.75c0-2.59.52-4.8,1.57-6.62,1.05-1.83,2.43-3.24,4.16-4.23,1.73-1,3.62-1.49,5.68-1.49,2.39,0,4.23.45,5.5,1.35,1.28.9,2.22,1.86,2.81,2.89h.8v-3.54h4.98v29.59c0,1.49-.44,2.69-1.32,3.59s-2.08,1.34-3.61,1.34h-16.54v-4.48h14.94c.96,0,1.44-.5,1.44-1.49v-7.82h-.8c-.37.6-.88,1.21-1.54,1.84-.66.63-1.54,1.15-2.62,1.54-1.08.4-2.43.6-4.06.6-2.06,0-3.96-.49-5.7-1.47-1.74-.98-3.13-2.39-4.16-4.23-1.03-1.84-1.54-4.04-1.54-6.6ZM93.79,65.4c2.22,0,4.06-.71,5.5-2.12,1.44-1.41,2.17-3.36,2.17-5.85v-.45c0-2.56-.71-4.52-2.14-5.9-1.43-1.38-3.27-2.07-5.53-2.07s-4.01.69-5.45,2.07c-1.44,1.38-2.17,3.35-2.17,5.9v.45c0,2.49.72,4.44,2.17,5.85,1.44,1.41,3.26,2.12,5.45,2.12Z"/><path class="d" d="M116.65,41.84c-1,0-1.84-.32-2.52-.97-.68-.65-1.02-1.49-1.02-2.52s.34-1.87,1.02-2.52c.68-.65,1.52-.97,2.52-.97s1.88.32,2.54.97c.66.65,1,1.49,1,2.52s-.33,1.87-1,2.52c-.66.65-1.51.97-2.54.97ZM114.06,69.73v-24.56h5.13v24.56h-5.13Z"/><path class="d" d="M136.02,69.73c-1.49,0-2.68-.45-3.56-1.34-.88-.9-1.32-2.09-1.32-3.59v-15.29h-6.77v-4.33h6.77v-8.12h5.13v8.12h7.32v4.33h-7.32v14.39c0,1,.46,1.49,1.4,1.49h5.13v4.33h-6.77Z"/><path class="d" d="M157.19,70.43c-1.76,0-3.33-.3-4.71-.9-1.38-.6-2.47-1.48-3.29-2.64-.81-1.16-1.22-2.57-1.22-4.23s.41-3.1,1.22-4.21c.81-1.11,1.92-1.95,3.34-2.52,1.41-.56,3.01-.85,4.81-.85h7.47v-1.59c0-1.43-.43-2.57-1.29-3.44-.86-.86-2.19-1.3-3.98-1.3s-3.11.42-4.03,1.25c-.93.83-1.54,1.91-1.84,3.24l-4.78-1.54c.4-1.33,1.04-2.53,1.92-3.61.88-1.08,2.05-1.95,3.51-2.62,1.46-.66,3.22-1,5.28-1,3.19,0,5.69.81,7.52,2.44,1.83,1.63,2.74,3.93,2.74,6.92v10.11c0,1,.46,1.49,1.4,1.49h2.09v4.28h-3.84c-1.16,0-2.11-.3-2.84-.9-.73-.6-1.1-1.41-1.1-2.44v-.15h-.75c-.27.5-.66,1.08-1.2,1.74-.53.66-1.31,1.24-2.34,1.72-1.03.48-2.39.72-4.08.72ZM157.94,66.19c2.06,0,3.72-.59,4.98-1.77,1.26-1.18,1.89-2.8,1.89-4.86v-.5h-7.17c-1.36,0-2.46.29-3.29.87-.83.58-1.25,1.44-1.25,2.57s.43,2.03,1.29,2.69c.86.66,2.04,1,3.54,1Z"/><path class="d" d="M178.31,69.73v-34.87h5.13v34.87h-5.13Z"/></g><g id="b"><rect class="c" width="260.48" height="150.56"/></g></svg>
