<?xml version="1.0" encoding="UTF-8"?>
<svg id="Ebene_2" data-name="Ebene 2" xmlns="http://www.w3.org/2000/svg" viewBox="0 0 260.48 195.35">
  <defs>
    <style>
      .cls-1 {
        fill: none;
      }

      .cls-2 {
        fill: #ffffff;
      }
    </style>
  </defs>
  <g id="Logos_Schutzraum" data-name="Logos, Schutzraum">
    <g>
      <path class="cls-2" d="M191.78,41.13c-1.61-1.76-3.67-2.69-5.95-2.69s-4.64.74-7.03,2.15c-.1-.51-.22-1-.35-1.47-1.83-6.71-5.63-8.56-8.49-8.93-10.07-1.3-15.58,9.2-19.22,16.14-.67,1.28-1.31,2.49-1.88,3.45-3,5.04-5.54,8.43-8.95,9.77-3.71,1.46-8.89.62-16.31-2.65-23.62-10.4-39.49-13.09-47.18-8-3.45,2.29-4.34,5.66-4.32,7.29l2.36-.03,2.36.02c0-.08.09-2.01,2.33-3.43,3.58-2.26,13.88-4.16,42.55,8.46,17.41,7.66,23.93,3.2,31.21-9.02.63-1.06,1.3-2.33,2-3.67,3.22-6.14,7.63-14.54,14.45-13.66,2.88.37,4.2,3.74,4.79,6.51.17.77.3,1.59.39,2.46-.34.31-.67.64-1,.98-3.52,3.62-6.27,8.22-7.34,12.29-1.28,4.87-.1,8.74,3.24,10.64.61.34,1.26.51,1.91.51.89,0,1.78-.31,2.57-.93,3.53-2.74,5.82-12.8,5.47-21.44,2.15-1.67,4.41-2.74,6.42-2.74.97,0,1.75.37,2.48,1.16,1.9,2.07,3.14,6.76,3.5,13.22.29,5.23-.1,9.81-.1,9.86l-.07,1.07h4.71l.05-.66h0c.18-2.02,1.54-19.96-4.62-26.67ZM174.04,55.46c-.82,4.5-2.04,7-2.72,7.85-1.24-1.13-1.01-3.31-.56-5.02.64-2.41,2.05-5.08,3.88-7.5-.11,1.55-.31,3.12-.59,4.66Z"/>
      <g>
        <path class="cls-2" d="M34.79,114.63v-4.79h4.69v-25.37h-4.69v-4.79h13.98c4.66,0,8.23,1.18,10.71,3.55,2.48,2.36,3.72,5.93,3.72,10.69v6.54c0,4.76-1.24,8.31-3.72,10.66-2.48,2.35-6.05,3.52-10.71,3.52h-13.98ZM44.93,109.73h3.9c3.03,0,5.28-.77,6.74-2.3,1.46-1.53,2.2-3.81,2.2-6.84v-6.89c0-3.06-.73-5.34-2.2-6.84-1.47-1.5-3.71-2.25-6.74-2.25h-3.9v25.12Z"/>
        <path class="cls-2" d="M72.04,86.66c-1,0-1.84-.32-2.52-.97-.68-.65-1.02-1.49-1.02-2.52s.34-1.87,1.02-2.52c.68-.65,1.52-.97,2.52-.97s1.88.32,2.55.97c.67.65,1,1.49,1,2.52s-.33,1.87-1,2.52c-.67.65-1.52.97-2.55.97ZM69.45,114.63v-24.62h5.14v24.62h-5.14Z"/>
        <path class="cls-2" d="M81.03,102.44v-.75c0-2.6.52-4.81,1.57-6.64,1.05-1.83,2.44-3.25,4.17-4.24,1.73-1,3.63-1.5,5.69-1.5,2.4,0,4.24.45,5.52,1.35,1.28.9,2.22,1.86,2.82,2.9h.8v-3.55h4.99v29.66c0,1.5-.44,2.7-1.32,3.6s-2.09,1.35-3.62,1.35h-16.58v-4.49h14.98c.96,0,1.45-.5,1.45-1.5v-7.84h-.8c-.37.6-.88,1.22-1.55,1.85-.67.63-1.54,1.15-2.62,1.55-1.08.4-2.44.6-4.07.6-2.06,0-3.97-.49-5.72-1.47-1.75-.98-3.14-2.4-4.17-4.24-1.03-1.85-1.55-4.05-1.55-6.62ZM93.87,110.28c2.23,0,4.07-.71,5.52-2.12,1.45-1.41,2.17-3.37,2.17-5.87v-.45c0-2.56-.72-4.54-2.15-5.92-1.43-1.38-3.28-2.07-5.54-2.07s-4.02.69-5.47,2.07c-1.45,1.38-2.17,3.35-2.17,5.92v.45c0,2.5.72,4.45,2.17,5.87,1.45,1.42,3.27,2.12,5.47,2.12Z"/>
        <path class="cls-2" d="M116.79,86.66c-1,0-1.84-.32-2.52-.97-.68-.65-1.02-1.49-1.02-2.52s.34-1.87,1.02-2.52c.68-.65,1.52-.97,2.52-.97s1.88.32,2.55.97c.67.65,1,1.49,1,2.52s-.33,1.87-1,2.52c-.67.65-1.52.97-2.55.97ZM114.19,114.63v-24.62h5.14v24.62h-5.14Z"/>
        <path class="cls-2" d="M136.21,114.63c-1.5,0-2.69-.45-3.57-1.35-.88-.9-1.32-2.1-1.32-3.6v-15.33h-6.79v-4.34h6.79v-8.14h5.14v8.14h7.34v4.34h-7.34v14.43c0,1,.47,1.5,1.4,1.5h5.14v4.34h-6.79Z"/>
        <path class="cls-2" d="M157.44,115.32c-1.77,0-3.34-.3-4.72-.9-1.38-.6-2.48-1.48-3.3-2.65-.82-1.17-1.22-2.58-1.22-4.24s.41-3.1,1.22-4.22c.82-1.12,1.93-1.96,3.35-2.52,1.41-.57,3.02-.85,4.82-.85h7.49v-1.6c0-1.43-.43-2.58-1.3-3.45-.87-.87-2.2-1.3-4-1.3s-3.11.42-4.05,1.25c-.93.83-1.55,1.91-1.85,3.25l-4.79-1.55c.4-1.33,1.04-2.54,1.92-3.62.88-1.08,2.06-1.96,3.52-2.62,1.46-.67,3.23-1,5.29-1,3.2,0,5.71.82,7.54,2.45,1.83,1.63,2.75,3.94,2.75,6.94v10.14c0,1,.47,1.5,1.4,1.5h2.1v4.29h-3.85c-1.17,0-2.11-.3-2.85-.9-.73-.6-1.1-1.41-1.1-2.45v-.15h-.75c-.27.5-.67,1.08-1.2,1.75-.53.67-1.32,1.24-2.35,1.72-1.03.48-2.4.72-4.1.72ZM158.19,111.08c2.06,0,3.73-.59,4.99-1.77,1.27-1.18,1.9-2.8,1.9-4.87v-.5h-7.19c-1.37,0-2.46.29-3.3.87-.83.58-1.25,1.44-1.25,2.57s.43,2.03,1.3,2.7c.87.67,2.05,1,3.55,1Z"/>
        <path class="cls-2" d="M178.61,114.63v-34.96h5.14v34.96h-5.14Z"/>
      </g>
      <g>
        <g>
          <path class="cls-2" d="M199.27,161.41c-1.77,0-3.34-.3-4.72-.9-1.38-.6-2.48-1.48-3.3-2.65-.82-1.17-1.22-2.58-1.22-4.24s.41-3.1,1.22-4.22c.82-1.12,1.93-1.96,3.35-2.52,1.41-.57,3.02-.85,4.82-.85h7.49v-1.6c0-1.43-.43-2.58-1.3-3.45-.87-.87-2.2-1.3-3.99-1.3s-3.11.42-4.05,1.25c-.93.83-1.55,1.91-1.85,3.25l-4.79-1.55c.4-1.33,1.04-2.54,1.92-3.62.88-1.08,2.06-1.96,3.52-2.62,1.46-.67,3.23-1,5.29-1,3.2,0,5.71.82,7.54,2.45,1.83,1.63,2.75,3.94,2.75,6.94v10.14c0,1,.47,1.5,1.4,1.5h2.1v4.29h-3.84c-1.17,0-2.11-.3-2.85-.9s-1.1-1.41-1.1-2.45v-.15h-.75c-.27.5-.67,1.08-1.2,1.75-.53.67-1.32,1.24-2.35,1.72s-2.4.72-4.09.72ZM200.02,157.16c2.06,0,3.73-.59,4.99-1.77,1.26-1.18,1.9-2.8,1.9-4.87v-.5h-7.19c-1.37,0-2.46.29-3.3.87-.83.58-1.25,1.44-1.25,2.57s.43,2.03,1.3,2.7c.87.67,2.05,1,3.55,1Z"/>
          <path class="cls-2" d="M220.44,160.71v-34.96h5.14v34.96h-5.14Z"/>
          <path class="cls-2" d="M174.05,161.3c-2.5,0-4.68-.52-6.54-1.57-1.86-1.05-3.32-2.53-4.37-4.44-1.05-1.91-1.57-4.14-1.57-6.67v-.6c0-2.56.52-4.8,1.55-6.72,1.03-1.91,2.47-3.4,4.32-4.44,1.85-1.05,3.99-1.57,6.42-1.57s4.44.52,6.22,1.57c1.78,1.05,3.17,2.51,4.17,4.37,1,1.86,1.5,4.05,1.5,6.54v1.95h-18.93c.07,2.16.79,3.89,2.17,5.17,1.38,1.28,3.1,1.92,5.17,1.92,1.93,0,3.39-.43,4.37-1.3.98-.87,1.74-1.86,2.27-3l4.24,2.2c-.47.93-1.14,1.91-2.02,2.95-.88,1.03-2.04,1.9-3.47,2.6-1.43.7-3.26,1.05-5.49,1.05ZM166.85,145.77h13.63c-.13-1.86-.8-3.32-2-4.37-1.2-1.05-2.76-1.57-4.69-1.57s-3.5.52-4.72,1.57c-1.22,1.05-1.96,2.51-2.22,4.37Z"/>
        </g>
        <path class="cls-2" d="M119.37,160.48v-34.96h10.14l7.64,31.36h.8l7.64-31.36h10.14v34.96h-5.24v-31.16h-.8l-7.59,31.16h-9.09l-7.59-31.16h-.8v31.16h-5.24Z"/>
      </g>
      <path class="cls-2" d="M205.31,78.49v-4.49h13.73c.93,0,1.4-.5,1.4-1.5v-7.59h-.8c-.3.67-.76,1.31-1.37,1.92-.62.61-1.44,1.12-2.47,1.52s-2.33.6-3.9.6c-1.87,0-3.53-.42-4.99-1.25-1.47-.83-2.62-2.02-3.45-3.55-.83-1.53-1.25-3.35-1.25-5.44v-14.83h5.14v14.43c0,2.13.53,3.71,1.6,4.72,1.07,1.02,2.55,1.52,4.45,1.52,2.1,0,3.79-.7,5.07-2.1,1.28-1.4,1.92-3.43,1.92-6.09v-12.48h5.14v29.66c0,1.5-.44,2.7-1.32,3.6-.88.9-2.09,1.35-3.62,1.35h-15.28Z"/>
      <rect class="cls-1" width="260.48" height="195.35"/>
    </g>
  </g>
</svg>
