<?xml version="1.0" encoding="UTF-8"?>
<svg id="Ebene_2" data-name="Ebene 2" xmlns="http://www.w3.org/2000/svg" viewBox="65 0 140 70">
  <defs>
    <style>
      .cls-1 {
        fill: none;
      }

      .cls-2 {
        fill: #ffffff;
      }
    </style>
  </defs>
  <g id="Logos_Schutzraum" data-name="Logos, Schutzraum">
    <g>
      <path class="cls-2" d="M191.78,41.13c-1.61-1.76-3.67-2.69-5.95-2.69s-4.64.74-7.03,2.15c-.1-.51-.22-1-.35-1.47-1.83-6.71-5.63-8.56-8.49-8.93-10.07-1.3-15.58,9.2-19.22,16.14-.67,1.28-1.31,2.49-1.88,3.45-3,5.04-5.54,8.43-8.95,9.77-3.71,1.46-8.89.62-16.31-2.65-23.62-10.4-39.49-13.09-47.18-8-3.45,2.29-4.34,5.66-4.32,7.29l2.36-.03,2.36.02c0-.08.09-2.01,2.33-3.43,3.58-2.26,13.88-4.16,42.55,8.46,17.41,7.66,23.93,3.2,31.21-9.02.63-1.06,1.3-2.33,2-3.67,3.22-6.14,7.63-14.54,14.45-13.66,2.88.37,4.2,3.74,4.79,6.51.17.77.3,1.59.39,2.46-.34.31-.67.64-1,.98-3.52,3.62-6.27,8.22-7.34,12.29-1.28,4.87-.1,8.74,3.24,10.64.61.34,1.26.51,1.91.51.89,0,1.78-.31,2.57-.93,3.53-2.74,5.82-12.8,5.47-21.44,2.15-1.67,4.41-2.74,6.42-2.74.97,0,1.75.37,2.48,1.16,1.9,2.07,3.14,6.76,3.5,13.22.29,5.23-.1,9.81-.1,9.86l-.07,1.07h4.71l.05-.66h0c.18-2.02,1.54-19.96-4.62-26.67ZM174.04,55.46c-.82,4.5-2.04,7-2.72,7.85-1.24-1.13-1.01-3.31-.56-5.02.64-2.41,2.05-5.08,3.88-7.5-.11,1.55-.31,3.12-.59,4.66Z"/>
    </g>
  </g>
</svg>
